SplineFontDB: 3.0
FontName: Lment
FullName: Lment
FamilyName: Lment
Weight: Medium
Copyright: Created by frank with FontForge 2.0 (http://fontforge.sf.net)
UComments: "2011-7-16: Created." 
Version: 001.000
ItalicAngle: 0
UnderlinePosition: -100
UnderlineWidth: 50
Ascent: 800
Descent: 200
LayerCount: 2
Layer: 0 0 "Back"  1
Layer: 1 0 "Fore"  0
NeedsXUIDChange: 1
XUID: [1021 263 571419938 3516499]
FSType: 0
OS2Version: 0
OS2_WeightWidthSlopeOnly: 0
OS2_UseTypoMetrics: 1
CreationTime: 1310833740
ModificationTime: 1310978764
OS2TypoAscent: 0
OS2TypoAOffset: 1
OS2TypoDescent: 0
OS2TypoDOffset: 1
OS2TypoLinegap: 90
OS2WinAscent: 0
OS2WinAOffset: 1
OS2WinDescent: 0
OS2WinDOffset: 1
HheadAscent: 0
HheadAOffset: 1
HheadDescent: 0
HheadDOffset: 1
Lookup: 4 0 0 "Ligature Substitution in Latin lookup 0"  {"Ligature Substitution in Latin lookup 0-1"  } ['    ' ('DFLT' <'dflt' > 'latn' <'dflt' > ) ]
MarkAttachClasses: 1
DEI: 91125
Encoding: UnicodeBmp
Compacted: 1
UnicodeInterp: none
NameList: Adobe Glyph List
DisplaySize: -24
AntiAlias: 1
FitToEm: 1
WidthSeparation: 50
WinInfo: 0 30 12
BeginPrivate: 0
EndPrivate
Grid
-1000 656 m 0
 2000 656 l 0
  Named: "top-pic" 
-1000 -10 m 0
 2000 -10 l 0
  Named: "baseline-optic" 
-1000 593 m 0
 2000 593 l 0
  Named: "top-real" 
-1000 0 m 0
 2000 0 l 0
  Named: "baseline" 
-1000 600 m 0
 2000 600 l 0
  Named: "top" 
370 1300 m 0
 370 -700 l 0
-1000 600.875 m 0
 2000 600.875 l 0
  Named: "h" 
EndSplineSet
BeginChars: 65536 78

StartChar: A
Encoding: 65 65 0
Width: 766
VWidth: 0
Flags: W
HStem: 0.25 60<532.812 634.062> 636 20G<361.368 383.186>
LayerCount: 2
Fore
SplineSet
371.938 656 m 1
 740.75 0.25 l 1
 496.812 0.25 l 1
 371.938 240.688 l 1
 265.25 0 l 1
 195.875 0 l 1
 371.938 360.688 l 1
 532.812 60.25 l 1
 634.062 60.25 l 1
 371.938 536 l 1
 94.625 0 l 1
 25.25 0 l 1
 371.938 656 l 1
EndSplineSet
Validated: 524289
EndChar

StartChar: B
Encoding: 66 66 1
Width: 554
VWidth: 0
Flags: W
HStem: 0 58.5<84.8125 151.375 211.375 393.251> 142.312 60<211.375 292.103> 375.375 59.9062<211.375 260.846> 539.906 60.0938<84.8125 151.375 211.375 329.179>
VStem: 24.8125 60<58.5 539.906> 151.375 60<58.5 142.312 202.312 375.375 435.281 539.906> 263.125 60<326.639 373.541> 303.25 60<214.367 295.456> 376.375 60<388.967 493.784> 469.188 60<134.359 297.923>
LayerCount: 2
Fore
SplineSet
24.8125 600 m 5xfcc0
 263.875 600 l 6
 358.844 600 436.375 522.65 436.375 427.688 c 4
 436.375 417.732 435.385 407.941 433.75 398.438 c 5
 491.271 358.928 529.188 292.676 529.188 217.875 c 4
 529.188 106.535 448.609 12.2051 340 0 c 5
 24.8125 0 l 5
 24.8125 600 l 5xfcc0
263.875 539.906 m 6
 211.375 539.906 l 5
 211.375 435.281 l 5
 231.625 435.281 l 6
 281.834 435.281 323.125 394.096 323.125 343.875 c 4xfec0
 323.125 342.246 322.645 340.799 322.562 339.188 c 4
 347.195 318.668 363.25 288.211 363.25 253.875 c 4xfdc0
 363.25 191.367 310.152 142.312 248.875 142.312 c 6
 211.375 142.312 l 5
 211.375 58.5 l 5
 316.375 58.875 l 6
 404.547 58.875 469.188 128.525 469.188 217.875 c 4
 469.188 278.701 435.396 331.107 385.562 357.938 c 6
 363.438 369.75 l 5
 370.938 393.562 l 6
 374.377 404.355 376.375 415.74 376.375 427.688 c 4
 376.375 490.225 326.418 539.906 263.875 539.906 c 6
84.8125 539.906 m 5
 84.8125 58.5 l 5
 151.375 58.5 l 5
 151.375 539.906 l 5
 84.8125 539.906 l 5
211.375 375.375 m 5
 211.375 202.312 l 5
 248.875 202.312 l 6
 277.732 202.312 303.25 226.26 303.25 253.875 c 4xfdc0
 303.25 273.727 292.34 290.537 276.25 299.25 c 6
 254.5 311.062 l 5
 261.812 334.688 l 6
 262.715 337.611 263.125 340.588 263.125 343.875 c 4
 263.125 361.664 249.414 375.375 231.625 375.375 c 6
 211.375 375.375 l 5
EndSplineSet
Validated: 1
EndChar

StartChar: C
Encoding: 67 67 2
Width: 583
VWidth: 0
Flags: W
HStem: -12 60<225.289 423.569> 107.25 60<255.816 393.187> 420.562 60<256.375 393.678> 540 60<225.992 421.224>
VStem: 24.7812 60<191.742 398.789> 144.219 60<220.537 368.406>
LayerCount: 2
Fore
SplineSet
324.781 600 m 0
 401.51 600 478.391 570.51 536.844 512.062 c 2
 558.219 490.875 l 1
 431.469 364.125 l 1
 410.094 385.312 l 2
 386.404 409.002 355.707 420.562 324.781 420.562 c 0
 293.855 420.562 263.158 409.002 239.469 385.312 c 0
 215.779 361.623 204.219 330.926 204.219 300 c 0
 204.219 269.074 215.779 226.377 239.469 202.688 c 0
 263.158 178.998 293.855 167.25 324.781 167.25 c 0
 355.707 167.25 386.404 178.998 410.094 202.688 c 1
 452.469 160.125 l 1
 417.312 124.969 370.971 107.25 324.781 107.25 c 0
 288.102 107.25 251.357 118.588 220.156 140.812 c 1
 177.781 98.4375 l 1
 220.994 64.7812 272.727 48 324.781 48 c 0
 386.246 48 447.477 71.3262 494.469 118.312 c 1
 536.844 75.75 l 1
 478.385 17.3027 401.51 -12 324.781 -12 c 0
 248.053 -12 171.178 17.3027 112.719 75.75 c 0
 54.2715 134.203 24.7812 223.271 24.7812 300 c 0
 24.7812 376.729 54.2715 453.609 112.719 512.062 c 0
 171.172 570.51 248.053 600 324.781 600 c 0
324.781 540 m 0
 263.316 540 202.086 516.674 155.094 469.688 c 0
 108.107 422.695 84.7812 361.465 84.7812 300 c 0
 84.7812 247.928 101.721 184.031 135.406 140.812 c 1
 177.781 183.188 l 1
 155.48 214.424 144.219 263.262 144.219 300 c 0
 144.219 346.189 161.938 392.531 197.094 427.688 c 0
 232.25 462.844 278.592 480.562 324.781 480.562 c 0
 361.467 480.562 398.006 468.85 429.219 446.625 c 1
 471.219 488.812 l 1
 428.041 522.375 376.76 540 324.781 540 c 0
EndSplineSet
Validated: 524289
EndChar

StartChar: D
Encoding: 68 68 3
Width: 599
VWidth: 0
Flags: W
HStem: -0.1875 60<86.3125 151.562 211.094 288.625> 102.375 60<211.094 388.375> 421.875 61.125<211.094 318.44> 532.688 60<84.8125 370.27>
VStem: 26.3125 60<60 532.688> 151.562 59.5312<60 102.375 162.375 421.875> 412.938 60<163.432 338.08> 514.188 60<177.219 390.188>
LayerCount: 2
Fore
SplineSet
24.8125 592.688 m 1
 274.188 592.688 l 2
 439.521 592.688 574.188 458.016 574.188 292.688 c 0
 574.188 215.725 551.541 136.289 506.5 76.3125 c 1
 380.688 76.3125 l 1
 383.26 84.416 385.779 93.0762 388.375 102.375 c 1
 211.094 102.375 l 1
 211.094 59.8125 l 1
 323.688 59.8125 l 1
 288.625 -0.1875 l 1
 26.3125 0 l 1
 24.8125 592.688 l 1
84.8125 532.688 m 1
 86.3125 60 l 1
 151.562 60 l 1
 150.438 483 l 1
 189.812 483 l 2
 268.521 483 338.406 467.238 390.438 427.5 c 0
 442.469 387.762 472.938 323.596 472.938 242.062 c 0
 472.938 207.592 464.705 161.584 454.188 117.188 c 0
 453.15 112.799 452.055 109.283 451 105 c 1
 491.107 153.908 514.188 223.33 514.188 292.688 c 0
 514.188 425.59 407.096 532.688 274.188 532.688 c 2
 84.8125 532.688 l 1
211.094 421.875 m 1
 211.094 162.375 l 1
 402.625 162.375 l 1
 408.848 193.963 412.938 224.139 412.938 242.062 c 0
 412.938 309.65 391.498 351.24 354.25 379.688 c 0
 320.869 405.182 271.586 419.109 211.094 421.875 c 1
EndSplineSet
Validated: 1
EndChar

StartChar: E
Encoding: 69 69 4
Width: 544
VWidth: 0
Flags: W
HStem: 0 60<84.9688 151.531 211.531 519.031> 170.188 60<84.9688 151.531 211.531 278.094> 288.312 60<84.9688 151.531 211.531 278.094> 414.875 60<84.9688 151.531 211.531 519.031> 533 60<84.9688 151.531 211.531 519.031>
VStem: 24.9688 60<60 170.188 230.188 288.312 348.312 414.875 474.875 533> 151.531 60<60 170.188 230.188 288.312 348.312 414.875 474.875 533> 278.094 60<230.188 288.312>
LayerCount: 2
Fore
SplineSet
24.9688 593 m 1
 519.031 593 l 1
 519.031 533 l 1
 211.531 533 l 1
 211.531 474.875 l 1
 519.031 474.875 l 1
 519.031 414.875 l 1
 211.531 414.875 l 1
 211.531 348.312 l 1
 338.094 348.312 l 1
 338.094 170.188 l 1
 211.531 170.188 l 1
 211.531 60 l 1
 519.031 60 l 1
 519.031 0 l 1
 24.9688 0 l 1
 24.9688 593 l 1
84.9688 533 m 1
 84.9688 474.875 l 1
 151.531 474.875 l 1
 151.531 533 l 1
 84.9688 533 l 1
84.9688 414.875 m 1
 84.9688 348.312 l 1
 151.531 348.312 l 1
 151.531 414.875 l 1
 84.9688 414.875 l 1
84.9688 288.312 m 1
 84.9688 230.188 l 1
 151.531 230.188 l 1
 151.531 288.312 l 1
 84.9688 288.312 l 1
211.531 288.312 m 1
 211.531 230.188 l 1
 278.094 230.188 l 1
 278.094 288.312 l 1
 211.531 288.312 l 1
84.9688 170.188 m 1
 84.9688 60 l 1
 151.531 60 l 1
 151.531 170.188 l 1
 84.9688 170.188 l 1
EndSplineSet
Validated: 524289
EndChar

StartChar: F
Encoding: 70 70 5
Width: 606
VWidth: 0
Flags: W
HStem: 0 60<87.8438 145.969> 243.125 60<87.8438 143.156 208.781 286.594> 383.75 65.625<90.6562 143.156 208.781 286.594> 527.188 65.625<90.6562 143.156 208.781 580.969>
VStem: 27.8438 60<60 243.125 449.375 527.188> 143.156 65.625<60 240.312 305.938 383.75 449.375 527.188> 286.594 65.625<305.938 383.75>
LayerCount: 2
Fore
SplineSet
25.0312 592.812 m 1
 580.969 592.812 l 1
 580.969 527.188 l 1
 208.781 527.188 l 1
 208.781 449.375 l 1
 352.219 449.375 l 1
 352.219 240.312 l 1
 205.969 240.312 l 1
 205.969 0 l 1
 27.8438 0 l 1
 27.8438 303.125 l 1
 143.156 303.125 l 1
 143.156 383.75 l 1
 25.0312 383.75 l 1
 25.0312 592.812 l 1
90.6562 527.188 m 1
 90.6562 449.375 l 1
 143.156 449.375 l 1
 143.156 527.188 l 1
 90.6562 527.188 l 1
208.781 383.75 m 1
 208.781 305.938 l 1
 286.594 305.938 l 1
 286.594 383.75 l 1
 208.781 383.75 l 1
87.8438 243.125 m 1
 87.8438 60 l 1
 145.969 60 l 1
 145.969 243.125 l 1
 87.8438 243.125 l 1
EndSplineSet
Validated: 524289
EndChar

StartChar: G
Encoding: 71 71 6
Width: 639
VWidth: 0
Flags: W
HStem: 0 60<227.716 420.492> 135 60<261.693 388.647> 253.125 60<316.781 418.969 481.781 595.219> 396.562 60<326.05 506.719> 405 60<261.693 505.126> 540 60<227.716 423.215>
VStem: 25.2188 60<202.499 397.501> 160.219 60<236.475 363.529> 421.781 60<73.2944 166.688>
LayerCount: 2
Fore
SplineSet
325.219 600 m 4xef80
 439.834 600 539.924 535.441 590.344 440.625 c 6
 613.781 396.562 l 5
 366.469 396.562 l 6xf780
 353.232 401.654 340.893 404.238 325.219 405 c 4
 266.871 405 220.219 358.354 220.219 300 c 4
 220.219 241.658 266.877 195 325.219 195 c 4
 366.568 195 401.818 218.695 418.969 253.125 c 5
 316.781 253.125 l 5
 316.781 313.125 l 5
 595.219 313.125 l 5
 595.219 253.125 l 5
 481.781 253.125 l 5
 481.781 43.6875 l 5
 465.844 35.25 l 6
 423.902 12.9375 375.961 0 325.219 0 c 4
 159.885 0 25.2188 134.672 25.2188 300 c 4
 25.2188 465.328 159.885 600 325.219 600 c 4xef80
325.219 540 m 4
 192.311 540 85.2188 432.902 85.2188 300 c 4
 85.2188 167.098 192.311 60 325.219 60 c 4
 359.889 60 392.109 68.5723 421.781 81.75 c 5
 421.781 166.688 l 5
 394.605 146.912 361.283 135 325.219 135 c 4
 234.445 135 160.219 209.227 160.219 300 c 4
 160.219 390.779 234.451 465 325.219 465 c 4xef80
 342.961 465 359.824 461.689 375.656 456.562 c 6
 506.719 456.562 l 5
 462.773 507.516 398.016 540 325.219 540 c 4
EndSplineSet
Validated: 1
EndChar

StartChar: H
Encoding: 72 72 7
Width: 573
VWidth: 0
Flags: W
HStem: 0 21G<24.9375 84 143.062 202.125 370.875 429.938 489 548.062> 0 21G<24.9375 84 143.062 202.125 370.875 429.938 489 548.062> 205.5 59.0615<202.125 370.875 429.938 489> 323.625 59.0625<202.125 370.875 429.938 489> 534.562 59.0625<429.938 489>
VStem: 24.9375 59.0625<0 593> 143.062 59.0635<0 205.5 264.562 323.625 382.688 593> 370.875 59.063<0 205.5 382.688 534.562> 489 59.062<0 205.5 382.688 534.562>
LayerCount: 2
Fore
SplineSet
370.875 593.625 m 1xbf80
 548.062 593.625 l 1
 548.062 323.625 l 1
 202.125 323.625 l 1
 202.125 264.562 l 1
 548.062 264.562 l 1
 548.062 0 l 1
 489 0 l 1
 489 205.5 l 1
 429.938 205.5 l 1
 429.938 0 l 1
 370.875 0 l 1
 370.875 205.5 l 1
 202.125 205.5 l 1
 202.125 0 l 1
 143.062 0 l 1
 143.062 593 l 1
 202.125 593 l 1
 202.125 382.688 l 1
 370.875 382.688 l 1
 370.875 593.625 l 1xbf80
24.9375 593 m 1
 84 593 l 1
 84 0 l 1
 24.9375 0 l 1
 24.9375 593 l 1
429.938 534.562 m 1
 429.938 382.688 l 1
 489 382.688 l 1
 489 534.562 l 1
 429.938 534.562 l 1
EndSplineSet
Validated: 524289
EndChar

StartChar: I
Encoding: 73 73 8
Width: 227
VWidth: 0
Flags: W
HStem: 0 21G<24.9062 83.9688 143.031 202.094> 0 21G<24.9062 83.9688 143.031 202.094> 532.562 59.0625<83.9688 143.031>
VStem: 24.9062 59.0626<0 532.562> 143.031 59.063<0 532.562>
LayerCount: 2
Fore
SplineSet
24.9062 591.625 m 1xb8
 202.094 591.625 l 1
 202.094 0 l 1
 143.031 0 l 1
 143.031 532.562 l 1
 83.9688 532.562 l 1
 83.9688 0 l 1
 24.9062 0 l 1
 24.9062 591.625 l 1xb8
EndSplineSet
Validated: 524289
EndChar

StartChar: J
Encoding: 74 74 9
Width: 503
VWidth: 0
Flags: W
HStem: 166.531 60<116.125 230.5> 539.719 53.0623<359.688 418.75>
VStem: 300.625 59.4375<50.8438 119.147 175.156 539.719> 418.75 59.0625<-9.65625 539.719>
LayerCount: 2
Fore
SplineSet
300.625 592.781 m 1
 477.812 592.781 l 1
 477.812 -9.65625 l 1
 418.75 -9.65625 l 1
 418.75 539.719 l 1
 359.688 539.719 l 1
 360.062 -10 l 1
 321.625 -10 l 2
 192.449 -10 82.082 71.2402 40 186.219 c 2
 25.1875 226.531 l 1
 230.5 226.531 l 1
 239.5 218.094 l 2
 257.488 200.715 277.996 186.225 300.625 175.156 c 1
 300.625 313.033 300.625 454.904 300.625 592.781 c 1
116.125 166.531 m 1
 154.492 102.424 221.512 57.8633 300.062 50.8438 c 1
 300.062 110.469 l 1
 265.668 123.488 234.613 142.607 207.625 166.531 c 1
 116.125 166.531 l 1
EndSplineSet
Validated: 524289
EndChar

StartChar: K
Encoding: 75 75 10
Width: 682
VWidth: 0
Flags: W
HStem: 0 59.5312<429.5 513.5> 573.152 20G<25.0625 84.125 126.312 185.375 343.012 444.125 509.453 606.875> 573.152 20G<25.0625 84.125 126.312 185.375 343.012 444.125 509.453 606.875>
VStem: 25.0625 59.0625<0.09375 321.469 405.094 593.152> 126.312 59.0635<0.09375 220.219 362.906 387.281 394.781 593.152>
LayerCount: 2
Fore
SplineSet
25.0625 593.152 m 1xd8
 84.125 593.152 l 1
 84.125 405.094 l 1
 126.312 362.906 l 1
 126.312 593.152 l 1
 185.375 593.152 l 1
 185.375 394.781 l 1
 360.688 593.152 l 1
 444.125 593.152 l 1
 265.062 391.031 l 1
 306.688 349.219 l 1
 527.562 593.152 l 1
 606.875 593.152 l 1
 348.5 307.594 l 1
 656.938 0 l 1
 405.125 0 l 1
 185.375 220.219 l 1
 185.375 0.09375 l 1
 126.312 0.09375 l 1
 126.312 279.281 l 1
 84.125 321.469 l 1
 84.125 0.09375 l 1
 25.0625 0.09375 l 1
 25.0625 593.152 l 1xd8
185.375 387.281 m 1
 185.375 303.844 l 1
 429.5 59.5312 l 1
 513.5 59.1562 l 1
 185.375 387.281 l 1
EndSplineSet
Validated: 524289
EndChar

StartChar: L
Encoding: 76 76 11
Width: 451
VWidth: 0
Flags: W
HStem: 0 60<84.875 426.125> 126.562 60<219.875 426.125> 533 60<84.875 159.875>
VStem: 24.875 60<60 533> 159.875 60<186.562 533>
LayerCount: 2
Fore
SplineSet
24.875 0 m 1
 24.875 593 l 5
 219.875 593 l 5
 219.875 186.562 l 1
 426.125 186.562 l 1
 426.125 126.562 l 1
 159.875 126.562 l 1
 159.875 533 l 5
 84.875 533 l 5
 84.875 60 l 1
 426.125 60 l 1
 426.125 0 l 1
 24.875 0 l 1
EndSplineSet
Validated: 524289
EndChar

StartChar: M
Encoding: 77 77 12
Width: 802
VWidth: 0
Flags: W
HStem: 0 53<633.5 716.938> 636 20G<25.0198 37.1084 621.897 633.841 764.202 776.98>
VStem: 25.0625 60<0 456.5> 168.5 60<0 208.062> 573.5 60<53 207.688 431.75 456.312> 716.938 60<53 456.125>
LayerCount: 2
Fore
SplineSet
25.0625 593 m 1
 25 656 l 1
 329.562 152.938 l 1
 634 656 l 1
 633.5 593 l 1
 633.5 431.75 l 1
 777 656 l 1
 776.938 593 l 1
 776.938 0 l 1
 573.5 0 l 1
 573.5 207.688 l 1
 472.812 33.3125 l 1
 401.188 157.438 l 1
 329.375 33.3125 l 1
 228.5 208.062 l 1
 228.5 0 l 1
 168.5 0 l 1
 168.5 311.75 l 1
 85.0625 456.5 l 1
 85.0625 0 l 1
 25.0625 0 l 1
 25.0625 593 l 1
573.5 456.312 m 1
 435.688 217.438 l 1
 472.812 153.312 l 1
 573.5 327.688 l 1
 573.5 327.875 l 1
 573.5 456.312 l 1
716.938 456.125 m 1
 633.5 311.375 l 1
 633.5 53 l 1
 716.938 53 l 1
 716.938 456.125 l 1
EndSplineSet
Validated: 524289
EndChar

StartChar: N
Encoding: 78 78 13
Width: 642
VWidth: 0
Flags: W
HStem: 0 60<85.2188 143.344> 0.0625 21G<598.105 616.781> 573.438 20G<438.656 498.656 556.781 616.781> 573.438 20G<438.656 498.656 556.781 616.781>
VStem: 25.2188 60<60 481.5> 143.344 60<60 327.188> 438.656 60<118.5 126.562 211.312 593.438> 556.781 60<145.188 593.438>
LayerCount: 2
Fore
SplineSet
25.2188 658.5 m 5x8f
 438.656 118.5 l 5
 438.656 593.438 l 5
 498.656 593.438 l 5
 498.656 211.312 l 5
 556.781 145.188 l 5
 556.781 593.438 l 5
 616.781 593.438 l 5
 616.781 0.0625 l 5x6f
 498.656 126.562 l 5
 498.656 -58.5 l 5
 203.344 327.188 l 5
 203.344 0 l 5
 25.2188 0 l 5
 25.2188 658.5 l 5x8f
85.2188 481.5 m 5
 85.2188 60 l 5
 143.344 60 l 5x8f
 143.344 405.562 l 5
 85.2188 481.5 l 5
EndSplineSet
Validated: 524289
EndChar

StartChar: O
Encoding: 79 79 14
Width: 650
VWidth: 0
Flags: W
HStem: 0 60<229.097 422.504> 413.438 60<258.406 363.482> 540 60<227.497 405.18>
VStem: 25 60<219.873 397.501> 151.562 60<261.611 366.589> 565 60<202.497 395.906>
LayerCount: 2
Fore
SplineSet
325 600 m 4
 378.771 600 429.461 585.639 473.125 560.812 c 6
 507.438 541.312 l 5
 414.438 448.5 l 5
 434.178 436.611 451.258 420.873 464.875 402.375 c 5
 556.75 494.062 l 5
 577 462.75 l 6
 607.387 415.863 625 359.965 625 300 c 4
 625 134.666 490.334 0 325 0 c 4
 265.035 0 209.143 17.8066 162.25 48.1875 c 6
 130.938 68.4375 l 5
 222.812 160.312 l 5
 204.332 173.865 188.582 190.91 176.688 210.562 c 5
 83.6875 117.75 l 5
 64.1875 152.062 l 6
 39.3613 195.738 25 246.234 25 300 c 4
 25 465.328 159.666 600 325 600 c 4
325 540 m 4
 192.092 540 85 432.902 85 300 c 4
 85 271.266 90.5781 244.078 99.8125 218.625 c 5
 153.812 272.812 l 6
 152.406 281.672 151.562 290.754 151.562 300 c 4
 151.562 395.426 229.562 473.438 325 473.438 c 4
 333.168 473.408 342.848 472.383 352.375 471.188 c 5
 406.375 525.375 l 5
 380.951 534.586 353.699 540 325 540 c 4
325 413.438 m 4
 261.988 413.438 211.562 363 211.562 300 c 4
 211.562 258.873 233.342 223.143 265.75 203.25 c 5
 421.75 359.062 l 5
 401.875 391.559 366.186 413.438 325 413.438 c 4
544.375 396.75 m 5
 228.25 80.8125 l 5
 257.893 67.6582 290.377 60 325 60 c 4
 457.914 60 565 167.092 565 300 c 4
 565 334.529 557.459 367.178 544.375 396.75 c 5
EndSplineSet
Validated: 1
EndChar

StartChar: P
Encoding: 80 80 15
Width: 507
VWidth: 0
Flags: W
HStem: 0 21G<25.2188 85.2188 151.781 211.781> 0 21G<25.2188 85.2188 151.781 211.781> 540.25 60<85.963 150.976>
VStem: 25.2188 60<0 537.8> 151.781 60.0002<0 191.5 265.375 533.12> 303.656 60<321.696 492.967> 421.781 60<321.051 492.45>
LayerCount: 2
Fore
SplineSet
142.594 600.25 m 0xbe
 160.289 600.508 179.227 599.688 198.469 597.062 c 0
 203.836 596.33 209.162 595.48 214.594 594.438 c 0
 242.279 598.141 280.992 600.824 321.094 595.188 c 0
 358.641 589.908 398.508 577.188 430.031 548.125 c 0
 461.555 519.062 481.781 473.758 481.781 414.625 c 0
 481.781 298.756 415.852 235.867 353.344 210.625 c 0
 291.797 185.77 233.104 190.598 231.281 190.75 c 0
 230.156 190.75 l 1
 211.781 191.5 l 1
 211.781 0 l 1
 151.781 0 l 1
 151.781 540.25 l 1
 124.178 540.508 100.98 537.379 85.2188 534.625 c 1
 85.2188 0 l 1
 25.2188 0 l 1
 25.2188 583.562 l 1
 48.2812 589.188 l 1
 48.2812 589.188 89.5137 599.482 142.594 600.25 c 0xbe
326.344 533.312 m 1
 349.465 504.719 363.656 465.355 363.656 416.5 c 0
 363.656 345.93 341.473 294.08 309.656 259.375 c 1
 316.67 261.326 323.736 263.629 330.844 266.5 c 0
 378.023 285.555 421.781 319.557 421.781 414.625 c 0
 421.781 460.961 408.445 486.455 389.344 504.062 c 0
 373.207 518.939 350.906 528.238 326.344 533.312 c 1
214.031 533.125 m 0
 213.357 533.008 212.438 532.867 211.781 532.75 c 2
 211.781 265.375 l 1
 226.652 270.9 241.172 278.6 253.969 289.188 c 0
 281.596 312.045 303.656 347.57 303.656 416.5 c 0
 303.656 462.637 289.922 487.838 270.094 505.562 c 0
 255.398 518.705 235.869 527.635 214.031 533.125 c 0
EndSplineSet
Validated: 524321
EndChar

StartChar: Q
Encoding: 81 81 16
Width: 738
VWidth: 0
Flags: W
HStem: -10 60<227.434 410.981> 99.6885 60.1865<255.3 319.5> 430.312 60<254.399 391.45> 540 60<230.111 419.764>
VStem: 24.9375 60<192.497 388.907> 134.625 60.1865<220.363 284.562> 455.25 60<210.073 364.416> 564.938 60<190.852 388.907>
LayerCount: 2
Fore
SplineSet
324.938 600 m 0
 490.271 600 624.938 455.328 624.938 290 c 0
 624.938 237.307 610.629 187.988 586.688 144.875 c 1
 713.062 20 l 1
 627.562 20 l 1
 510.375 135.688 l 1
 524.25 156.312 l 2
 549.949 194.539 564.938 240.354 564.938 290 c 0
 564.938 422.902 457.846 540 324.938 540 c 0
 192.029 540 84.9375 422.902 84.9375 290 c 0
 84.9375 157.092 192.029 50 324.938 50 c 0
 355.945 50 385.195 56.2168 412.312 66.875 c 1
 373.125 106.062 l 1
 357.691 101.979 341.59 99.6885 324.938 99.6885 c 0
 220.184 99.6885 134.625 185.246 134.625 290 c 0
 134.625 394.748 220.178 490.312 324.938 490.312 c 0
 429.691 490.312 515.25 394.748 515.25 290 c 0
 515.25 250.865 503.361 214.35 483 184.062 c 1
 433.125 217.438 l 1
 447.082 238.197 455.25 262.982 455.25 290 c 0
 455.25 362.328 397.266 430.312 324.938 430.312 c 0
 275.203 430.312 232.172 402.879 210.188 362.25 c 1
 211.125 363.188 l 1
 511.875 52.25 l 1
 478.875 32.5625 l 2
 433.887 5.62695 381.094 -10 324.938 -10 c 0
 159.604 -10 24.9375 124.666 24.9375 290 c 0
 24.9375 455.328 159.604 600 324.938 600 c 0
194.812 284.562 m 1
 197.555 216.582 251.52 162.623 319.5 159.875 c 1
 194.812 284.562 l 1
EndSplineSet
Validated: 524289
EndChar

StartChar: R
Encoding: 82 82 17
Width: 691
VWidth: 0
Flags: W
HStem: -1 59.0625<454.906 523.344> 542.312 55.875<84.2188 143.094>
VStem: 25.1562 59.0625<0.625 542.178> 143.094 59.25<0.625 226.188 232.562 537.812> 354.219 58.875<306.155 474.263> 480.594 59.25<294.558 474.37>
LayerCount: 2
Fore
SplineSet
249.031 602.5 m 0
 277.086 602.975 312.453 601.328 350.844 594.438 c 0
 395.105 586.492 441.277 571.48 477.969 540.438 c 0
 514.66 509.394 539.844 461.102 539.844 398.875 c 0
 539.844 312.502 511.461 257.389 480.969 225.625 c 0
 473.387 217.732 465.746 211.059 458.281 205.75 c 1
 665.844 -1 l 1
 430.531 -1 l 1
 202.344 226.188 l 1
 202.344 0.625 l 1
 143.094 0.625 l 1
 143.094 542.312 l 1
 118.039 543.127 98.5566 542.078 84.2188 540.625 c 1
 84.2188 0.625 l 1
 25.1562 0.625 l 1
 25.1562 592.938 l 1
 50.0938 596.875 l 1
 50.0938 596.875 115.836 606.004 191.094 598.188 c 0
 200.328 599.43 220.977 602.025 249.031 602.5 c 0
202.344 537.812 m 2
 202.344 232.562 l 1
 251.281 242.312 l 1
 251.281 242.312 275.357 247.094 301.344 268.75 c 0
 327.33 290.406 354.219 326.494 354.219 398.875 c 0
 354.219 446.336 338.164 473.898 313.156 495.062 c 0
 288.148 516.227 251.973 529.492 213.969 536.312 c 0
 210.049 537.016 206.188 537.455 202.344 537.812 c 2
360.406 530.688 m 1
 391.754 499.655 413.094 455.447 413.094 398.875 c 0
 413.094 310.943 376.701 254.266 339.406 223.188 c 0
 329.117 214.615 318.922 208.305 309.219 202.938 c 1
 454.906 58.0625 l 1
 523.344 58.0625 l 1
 351.031 229.375 l 1
 401.656 241.938 l 1
 401.656 241.938 418.086 245.336 438.219 266.312 c 0
 458.352 287.283 480.594 324.936 480.594 398.875 c 0
 480.594 446.336 464.727 473.898 439.719 495.062 c 0
 419.293 512.348 390.658 523.158 360.406 530.688 c 1
EndSplineSet
Validated: 524321
EndChar

StartChar: S
Encoding: 83 83 18
Width: 504
VWidth: 0
Flags: W
HStem: -9 60<211.347 365.802> 142.875 60<25.3125 105.007> 178.406 60<165.696 340.355> 305.062 60<189.172 358.412> 427.125 60<375.167 464.625> 540 60<184.246 295.526>
VStem: 78.75 60<265.562 344.153> 97.125 60<103.477 143.25 400.554 512.75> 419.062 60<168.531 243.272>
LayerCount: 2
Fore
SplineSet
239.812 600 m 0xdd80
 308.133 600 367.23 551.818 381.375 487.125 c 1
 464.625 487.125 l 1
 464.625 427.125 l 1
 324.75 427.125 l 1
 324.75 457.125 l 2
 324.75 502.482 285.855 540 239.812 540 c 0
 193.787 540 157.125 503.156 157.125 457.125 c 0xdd80
 157.125 411.076 193.787 365.062 239.812 365.062 c 2
 288.75 365.062 l 2
 393.562 364.676 479.062 278.344 479.062 173.438 c 0
 479.062 68.3086 391.424 -9 288.188 -9 c 2
 288 -9 l 2
 195.035 -9 115.406 54 100.312 143.25 c 1
 25.3125 142.875 l 1
 24.9375 202.875 l 1
 141.75 203.625 l 1
 103.887 229.371 78.75 272.613 78.75 321.562 c 0xde80
 78.75 351.75 88.2949 380.139 104.438 403.312 c 1
 99.7207 417.422 97.125 441.475 97.125 457.125 c 0
 97.125 535.582 161.355 600 239.812 600 c 0xdd80
142.125 344.812 m 1
 140.197 338.039 139.125 329.736 138.75 321.562 c 0
 138.75 275.514 175.406 238.406 221.438 238.406 c 2
 270.562 238.406 l 2xbe80
 330.422 238.184 383.941 209.842 418.875 166.312 c 1
 418.992 168.662 419.062 171.035 419.062 173.438 c 0
 419.062 246.158 360.896 305.062 288.188 305.062 c 2
 239.062 305.062 l 2
 201.598 305.25 167.566 320.842 142.125 344.812 c 1
157.125 194.438 m 1xbd80
 157.125 173.438 l 2
 157.125 100.74 213.574 51 288.188 51 c 0
 331.184 51 368.092 67.4766 391.688 95.4385 c 1
 372.48 143.748 325.336 178.406 269.812 178.406 c 2
 221.438 178.406 l 2
 198.322 178.406 176.496 184.564 157.125 194.438 c 1xbd80
EndSplineSet
Validated: 524289
EndChar

StartChar: T
Encoding: 84 84 19
Width: 620
VWidth: 0
Flags: W
HStem: 0 21G<205.938 265.938 349.375 409.375> 0 21G<205.938 265.938 349.375 409.375> 413.875 60.5625<25 205.938 265.938 349.375 409.375 535> 532 60<25 205.938 265.938 349.375 409.375 535>
VStem: 205.938 60<0 413.875 474.438 532> 349.375 60<0 412.938 474.438 532> 535 60<472.938 532>
LayerCount: 2
Fore
SplineSet
25 592 m 1xbe
 595 592 l 1
 595 412.938 l 1
 409.375 412.938 l 1
 409.375 0 l 1
 349.375 0 l 1
 349.375 412.938 l 1
 349.375 413.875 l 1
 265.938 413.875 l 1
 265.938 0 l 1
 205.938 0 l 1
 205.938 413.875 l 1
 25 413.875 l 1
 25 473.875 l 1
 205.938 474.438 l 1
 205.938 532 l 1
 25 532 l 1
 25 592 l 1xbe
265.938 532 m 1
 265.938 474.438 l 1
 349.375 474.438 l 1
 349.375 532 l 1
 265.938 532 l 1
409.375 532 m 1
 409.375 472.938 l 1
 535 472.938 l 1
 535 532 l 1
 409.375 532 l 1
EndSplineSet
Validated: 524289
EndChar

StartChar: U
Encoding: 85 85 20
Width: 650
VWidth: 0
Flags: W
HStem: -10 60<225.22 410.173> 533 60<85 134.688>
VStem: 25 60<190.885 533> 134.688 60<274.258 533> 438.438 60<275.473 591> 565 60<192.507 591>
LayerCount: 2
Fore
SplineSet
25 593 m 1
 194.688 593 l 1
 194.688 375.938 l 2
 194.688 286.154 243.883 198.26 316.562 157.062 c 1
 389.242 198.26 438.438 286.137 438.438 375.938 c 2
 438.438 591 l 1
 498.438 591 l 1
 498.438 375.938 l 2
 498.438 280.998 454.094 186.189 385 131.188 c 1
 401.031 127.807 417.602 125.938 434.688 125.938 c 0
 461.354 125.938 486.918 130.314 510.812 138.312 c 1
 544.68 179.686 565 232.25 565 290 c 2
 565 591 l 1
 625 591 l 1
 625 290 l 2
 625 214.742 597.027 145.783 551.125 93.125 c 0
 496.17 30.0723 415.1 -10 325 -10 c 0
 238.955 -10 161.049 26.4805 106.375 84.6875 c 0
 55.9844 138.312 25 210.711 25 290 c 2
 25 593 l 1
85 533 m 1
 85 290 l 2
 85 226.291 109.674 168.916 150.062 125.938 c 0
 193.879 79.291 255.854 50 325 50 c 0
 355.762 50 384.496 56.7559 411.438 67.25 c 1
 373.035 70.2207 336.467 80.0117 303.438 96.125 c 0
 203.5 144.828 134.688 257.59 134.688 375.938 c 2
 134.688 533 l 1
 85 533 l 1
EndSplineSet
Validated: 524289
EndChar

StartChar: V
Encoding: 86 86 21
Width: 739
VWidth: 0
Flags: W
HStem: 524.688 67.5<132.969 221.281>
LayerCount: 2
Fore
SplineSet
24.7812 592.188 m 1
 251.469 592.188 l 1
 369.406 379.812 l 1
 487.531 592.188 l 1
 556.719 592.188 l 1
 369.406 259.812 l 1
 221.281 524.688 l 1
 132.969 524.688 l 1
 369.406 107 l 1
 645.031 592.188 l 1
 714.219 592.188 l 1
 369.406 -13 l 1
 24.7812 592.188 l 1
EndSplineSet
Validated: 524289
EndChar

StartChar: W
Encoding: 87 87 22
Width: 1052
VWidth: 0
Flags: W
HStem: 524.688 67.5<133.375 221.688>
LayerCount: 2
Fore
SplineSet
25.1875 592.188 m 1
 251.875 592.188 l 1
 410.875 316.188 l 1
 370 261.812 l 1
 221.688 524.688 l 1
 133.375 524.688 l 1
 370 109 l 1
 645.438 592.188 l 1
 714.625 592.188 l 1
 370 -11 l 1
 25.1875 592.188 l 1
800.125 592.188 m 1
 869.312 592.188 l 1
 682.188 261.812 l 1
 628.75 354.25 l 1
 668.312 405.812 l 1
 682.188 381.812 l 1
 800.125 592.188 l 1
957.625 592.188 m 1
 1026.81 592.188 l 1
 682.188 -11 l 1
 562.75 198.062 l 1
 596.5 257.125 l 1
 682.188 109 l 1
 957.625 592.188 l 1
EndSplineSet
Validated: 524289
EndChar

StartChar: X
Encoding: 88 88 23
Width: 696
VWidth: 0
Flags: W
HStem: 0 60<467.344 566.906> 532.062 60<129.281 228.656>
LayerCount: 2
Fore
SplineSet
25.2188 592.062 m 1
 263.344 592.062 l 1
 348.094 449.25 l 1
 442.531 591.25 l 1
 511.906 591.25 l 1
 263.531 183.188 l 1
 232.406 237.375 l 1
 85.2812 0.25 l 1
 16.6562 0.25 l 1
 197.531 297.75 l 1
 25.2188 592.062 l 1
608.281 591.25 m 1
 677.281 591.25 l 1
 498.656 298.125 l 1
 670.781 0 l 1
 432.656 0 l 1
 348.094 146.812 l 1
 249.906 0.25 l 1
 180.719 0.25 l 1
 432.469 412.875 l 1
 463.781 358.5 l 1
 608.281 591.25 l 1
129.281 532.062 m 1
 263.719 303.188 l 1
 313.406 389.25 l 1
 228.656 532.062 l 1
 129.281 532.062 l 1
432.469 292.875 m 1
 382.594 206.812 l 1
 467.344 60 l 1
 566.906 60 l 1
 464.344 237.75 l 1
 432.469 292.875 l 1
EndSplineSet
Validated: 524289
EndChar

StartChar: Y
Encoding: 89 89 24
Width: 751
VWidth: 0
Flags: W
HStem: 0 21G<290.656 352.719 400.344 460.344> 0 21G<290.656 352.719 400.344 460.344> 571 20G<25.1562 130.078 173.844 278.781 474.281 579.219 620.906 725.844> 571 20G<25.1562 130.078 173.844 278.781 474.281 579.219 620.906 725.844>
VStem: 290.656 62.063<0 218.062 300.75 325.688> 400.344 60<0 265.688>
LayerCount: 2
Fore
SplineSet
25.1562 591 m 1xac
 110.094 591 l 1
 350.656 350.25 l 1
 350.656 300.75 l 1
 640.906 591 l 1
 725.844 591 l 1
 460.344 325.688 l 1
 460.344 0 l 1
 400.344 0 l 1
 400.344 265.688 l 1
 352.719 218.062 l 1
 352.719 0 l 1
 290.656 0 l 1
 290.656 325.688 l 1
 25.1562 591 l 1xac
173.844 591 m 1
 258.781 591 l 1
 376.531 473.25 l 1
 494.281 591 l 1
 579.219 591 l 1
 376.531 388.125 l 1
 173.844 591 l 1
EndSplineSet
Validated: 524289
EndChar

StartChar: Z
Encoding: 90 90 25
Width: 624
VWidth: 0
Flags: W
HStem: 0 60.75<283.828 591.016> 112.688 60<349.453 591.016> 428.312 60<24.7969 280.453> 529.75 61.7812<24.7969 339.703>
LayerCount: 2
Fore
SplineSet
530.016 591.531 m 1
 599.203 591.531 l 1
 349.453 172.688 l 1
 591.016 172.688 l 1
 591.016 112.688 l 1
 314.391 112.688 l 1
 283.828 60.75 l 1
 591.016 60.75 l 1
 591.016 0 l 1
 179.016 0 l 1
 530.016 591.531 l 1
24.7969 591.531 m 5
 444.141 591.531 l 1
 96.1406 0 l 1
 32.3906 0 l 1
 280.453 428.312 l 1
 24.7969 428.312 l 5
 24.7969 488.312 l 5
 315.516 488.312 l 1
 339.703 529.75 l 1
 24.7969 529.75 l 5
 24.7969 591.531 l 5
EndSplineSet
Validated: 524289
EndChar

StartChar: at
Encoding: 64 64 26
Width: 658
VWidth: 0
Flags: W
HStem: 0 60<217.964 485.094> 118.562 60<264.497 455.094 515.094 573.219> 422.312 60<264.147 402.188> 540.438 60<228.19 429.812>
VStem: 24.7812 60<195.397 397.031> 151.344 60<231.362 369.51> 455.094 60<178.562 369.161> 573.219 60<178.562 396.799>
LayerCount: 2
Fore
SplineSet
358.531 0 m 2
 243.248 0 168.236 26.6699 113.844 81.0625 c 0
 58.8184 136.07 24.7812 212.377 24.7812 296.219 c 0
 24.7812 380.037 58.8184 456.361 113.844 511.375 c 0
 168.863 566.395 245.17 600.438 329 600.438 c 0
 412.836 600.438 489.137 566.395 544.156 511.375 c 0
 599.182 456.361 633.219 380.037 633.219 296.219 c 2
 633.219 118.562 l 1
 333.219 118.562 l 2
 283.174 118.562 237.43 138.871 204.547 171.766 c 0
 171.676 204.637 151.344 250.387 151.344 300.438 c 0
 151.344 350.482 171.676 396.232 204.547 429.109 c 0
 237.424 461.975 283.168 482.312 333.219 482.312 c 0
 383.27 482.312 429.014 461.975 461.891 429.109 c 0
 494.762 396.232 515.094 350.482 515.094 300.438 c 2
 515.094 178.562 l 1
 573.219 178.562 l 1
 573.219 296.219 l 2
 573.219 363.824 545.961 424.738 501.734 468.953 c 0
 457.496 513.186 396.617 540.438 329 540.438 c 0
 261.389 540.438 200.504 513.186 156.266 468.953 c 0
 112.039 424.738 84.7812 363.824 84.7812 296.219 c 0
 84.7812 228.59 112.039 167.699 156.266 123.484 c 0
 201.131 78.6191 254.439 60 358.531 60 c 2
 485.094 60 l 1
 485.094 0 l 1
 358.531 0 l 2
333.219 178.562 m 2
 455.094 178.562 l 1
 455.094 300.438 l 2
 455.094 334.27 441.318 364.598 419.234 386.688 c 0
 397.15 408.701 366.98 422.312 333.219 422.312 c 0
 299.393 422.312 269.064 408.777 246.969 386.688 c 0
 224.885 364.598 211.344 334.27 211.344 300.438 c 0
 211.344 266.605 224.885 236.271 246.969 214.188 c 0
 269.059 192.086 299.381 178.562 333.219 178.562 c 2
EndSplineSet
Validated: 524289
EndChar

StartChar: question
Encoding: 63 63 27
Width: 286
VWidth: 0
Flags: W
HStem: 0 165<40.7012 100.701 175.701 235.701> 105 60<100.701 175.701> 245.578 60<87.0092 146.845> 369.094 60<86.895 186.533> 540.656 60<95.3092 190.826>
VStem: 24.998 59.9941<307.592 366.897 487.219 529.697> 40.7012 59.9998<0 105> 149.445 60<307.717 337.219> 175.701 60<0 105> 201.008 60<441.467 529.919>
LayerCount: 2
Fore
SplineSet
116.639 245.578 m 4x3d
 66.4121 245.578 24.998 286.992 24.998 337.219 c 4
 24.998 387.205 66.0371 428.701 115.936 429.094 c 6
 143.117 429.094 l 6
 175.49 429.094 201.008 454.846 201.008 487.219 c 4
 201.008 519.592 177.389 540.656 143.117 540.656 c 4
 108.84 540.656 84.9922 519.592 84.9922 487.219 c 5
 24.9922 487.219 l 5
 24.9922 552.012 80.2168 600.656 143.117 600.656 c 4
 206.018 600.656 261.008 552.012 261.008 487.219 c 4x3c40
 261.008 422.578 208.174 369.352 143.586 369.094 c 6
 116.633 369.094 l 6
 98.832 369.094 84.9922 355.02 84.9922 337.219 c 4
 84.9922 319.418 98.832 305.578 116.633 305.578 c 4
 134.428 305.578 149.445 320.086 149.445 337.219 c 5
 209.445 337.219 l 5
 209.445 286.324 166.854 245.578 116.639 245.578 c 4x3d
40.7012 0 m 1xba80
 40.7012 165 l 1
 235.701 165 l 1
 235.701 0 l 1
 175.701 0 l 1xba80
 175.701 105 l 1
 100.701 105 l 1x7a80
 100.701 0 l 1
 40.7012 0 l 1xba80
EndSplineSet
Validated: 524289
EndChar

StartChar: exclam
Encoding: 33 33 28
Width: 245
VWidth: 0
Flags: W
HStem: 0 165<25 85 160 220> 105 60<85 160> 531 60<85 160>
VStem: 25 60<0 105 219.375 531> 160 60<0 105 219.375 531>
LayerCount: 2
Fore
SplineSet
25 0 m 1xb8
 25 165 l 1
 220 165 l 1
 220 0 l 1
 160 0 l 1xb8
 160 105 l 1
 85 105 l 1x78
 85 0 l 1
 25 0 l 1xb8
25 219.375 m 1
 25 591 l 1
 220 591 l 1
 220 219.375 l 1
 160 219.375 l 1
 160 531 l 1
 85 531 l 1
 85 219.375 l 1
 25 219.375 l 1
EndSplineSet
Validated: 524289
EndChar

StartChar: period
Encoding: 46 46 29
Width: 245
VWidth: 0
Flags: W
HStem: 0 60<85 160> 135 60<85 160>
VStem: 25 60<60 135> 160 60<60 135>
LayerCount: 2
Fore
SplineSet
25 0 m 5
 25 195 l 5
 220 195 l 5
 220 0 l 5
 25 0 l 5
85 60 m 5
 160 60 l 5
 160 135 l 5
 85 135 l 5
 85 60 l 5
EndSplineSet
Validated: 1
EndChar

StartChar: comma
Encoding: 44 44 30
Width: 253
VWidth: 0
Flags: W
HStem: 0 60<145.367 168.102> 130.547 60<37.7891 168.102>
VStem: 168.102 60<60 130.547>
LayerCount: 2
Fore
SplineSet
67.5547 -77.8125 m 5
 24.8984 -35.3906 l 5
 120.289 60 l 5
 168.102 60 l 5
 168.102 130.547 l 5
 37.7891 130.547 l 5
 37.7891 190.547 l 5
 228.102 190.547 l 5
 228.102 0 l 5
 145.367 0 l 5
 67.5547 -77.8125 l 5
EndSplineSet
Validated: 1
EndChar

StartChar: semicolon
Encoding: 59 59 31
Width: 253
VWidth: 0
Flags: W
HStem: 0 60<145.367 168.102> 130.547 60<37.7891 168.102> 214.922 60<93.1016 168.102> 349.922 60<93.1016 168.102>
VStem: 33.1016 60<274.922 349.922> 168.102 60<60 130.547 274.922 349.922>
LayerCount: 2
Fore
SplineSet
33.1016 214.922 m 5
 33.1016 409.922 l 5
 228.102 409.922 l 5
 228.102 214.922 l 5
 33.1016 214.922 l 5
93.1016 274.922 m 5
 168.102 274.922 l 5
 168.102 349.922 l 5
 93.1016 349.922 l 5
 93.1016 274.922 l 5
67.5547 -77.8125 m 5
 24.8984 -35.3906 l 5
 120.289 60 l 5
 168.102 60 l 5
 168.102 130.547 l 5
 37.7891 130.547 l 5
 37.7891 190.547 l 5
 228.102 190.547 l 5
 228.102 0 l 5
 145.367 0 l 5
 67.5547 -77.8125 l 5
EndSplineSet
Validated: 1
EndChar

StartChar: colon
Encoding: 58 58 32
Width: 245
VWidth: 0
Flags: W
HStem: 0 60<85 160> 135 60<85 160> 219.375 60<85 160> 354.375 60<85 160>
VStem: 25 60<60 135 279.375 354.375> 160 60<60 135 279.375 354.375>
LayerCount: 2
Fore
SplineSet
25 0 m 5
 25 195 l 5
 220 195 l 5
 220 0 l 5
 25 0 l 5
85 60 m 5
 160 60 l 5
 160 135 l 5
 85 135 l 5
 85 60 l 5
25 219.375 m 5
 25 414.375 l 5
 220 414.375 l 5
 220 219.375 l 5
 25 219.375 l 5
85 279.375 m 5
 160 279.375 l 5
 160 354.375 l 5
 85 354.375 l 5
 85 279.375 l 5
EndSplineSet
Validated: 1
EndChar

StartChar: zero
Encoding: 48 48 33
Width: 650
VWidth: 0
Flags: W
HStem: -10 60<237.619 422.505> 540 60<230.18 400.243>
VStem: 25 60<214.755 388.909> 565 60<192.496 377.438>
LayerCount: 2
Fore
SplineSet
325 -10 m 0
 268.188 -10 214.727 5.82031 169.375 33.3594 c 2
 136.797 53.2812 l 1
 561.719 488.203 l 1
 581.641 455.625 l 2
 609.197 410.273 625 346.807 625 290 c 0
 625 124.666 490.34 -10 325 -10 c 0
325 50 m 0
 457.914 50 565 157.086 565 290 c 0
 565 321.635 558.484 351.5 547.422 379.062 c 1
 235.938 67.5781 l 1
 263.5 56.5156 293.371 50 325 50 c 0
81.0156 110.938 m 1
 61.7969 146.094 l 2
 38.4238 188.791 25 237.986 25 290 c 0
 25 455.334 159.684 600 325 600 c 0
 377.014 600 426.197 586.588 468.906 563.203 c 2
 504.062 543.984 l 1
 81.0156 110.938 l 1
98.8281 213.828 m 1
 401.172 526.172 l 1
 377.113 534.293 351.9 540 325 540 c 0
 192.109 540 85 422.908 85 290 c 0
 85 263.105 90.707 237.881 98.8281 213.828 c 1
EndSplineSet
Validated: 524289
EndChar

StartChar: one
Encoding: 49 49 34
Width: 498
VWidth: 0
Flags: W
HStem: 0 21G<282.398 342.398 413.18 473.18> 0 21G<282.398 342.398 413.18 473.18> 338.844 60<169.43 215.367> 636.422 20G<322.398 342.398 453.18 473.18>
VStem: 282.398 60<0 380.797> 413.18 60<0 511.344>
LayerCount: 2
Fore
SplineSet
282.398 0 m 1xbc
 282.398 380.797 l 1
 240.445 338.844 l 1
 24.8203 338.844 l 1
 342.398 656.422 l 1
 342.398 525.641 l 1
 473.18 656.422 l 1
 473.18 0 l 1
 413.18 0 l 1
 413.18 511.344 l 1
 342.398 440.797 l 1
 342.398 0 l 1
 282.398 0 l 1xbc
169.43 398.844 m 1
 215.367 398.844 l 1
 282.398 465.875 l 1
 282.398 511.344 l 1
 169.43 398.844 l 1
EndSplineSet
Validated: 524289
EndChar

StartChar: two
Encoding: 50 50 35
Width: 448
VWidth: 0
Flags: W
HStem: 0 60<85.25 151.812 211.812 422.75> 118.125 60<211.812 422.75> 431.938 60<86.5284 307.077> 539.188 60<86.8203 305.158>
VStem: 25.25 60<60 208.365 477.875 530.668> 151.812 60<60 118.125 178.125 216.562>
LayerCount: 2
Fore
SplineSet
186.875 599.188 m 0
 197.557 599.428 208.373 599.311 219.312 598.812 c 0
 263.082 596.826 308.779 588.523 346.438 563.375 c 0
 384.096 538.227 410.562 493.596 410.562 434.938 c 0
 410.562 376.279 385.889 347.238 350.938 312.562 c 0
 315.986 277.887 271.543 255.041 228.312 239.062 c 0
 222.658 236.971 217.256 235.084 211.812 233.25 c 2
 211.812 178.125 l 1
 422.75 178.125 l 1
 422.75 118.125 l 1
 211.812 118.125 l 1
 211.812 60 l 1
 422.75 60 l 1
 422.75 0 l 1
 25.25 0 l 1
 25.25 260.812 l 1
 53.5625 262.5 l 1
 53.5625 262.5 131.498 267.152 207.688 295.312 c 0
 245.785 309.393 282.518 329.473 308.562 355.312 c 0
 320.697 367.354 321.352 370.729 328.5 385.5 c 1
 316.131 407.988 306.746 412.215 281.75 421.062 c 0
 254.896 430.566 221.146 433.35 188.562 431.938 c 0
 123.395 429.113 64.4375 410.562 64.4375 410.562 c 1
 25.25 398.188 l 1
 25.25 573.875 l 1
 47.5625 580.062 l 1
 47.5625 580.062 112.109 597.5 186.875 599.188 c 0
195.312 539.188 m 0
 146.826 539.029 106.619 531.172 85.25 526.438 c 1
 85.25 477.875 l 1
 111.201 483.816 146.164 490.203 186.125 491.938 c 0
 223.578 493.561 263.938 491.023 301.625 477.688 c 0
 318.307 471.781 334.432 462.857 349.062 451.812 c 1
 345.547 482.691 332.896 500.252 313.062 513.5 c 0
 289.725 529.086 254.059 537.107 216.5 538.812 c 0
 209.264 539.141 202.238 539.211 195.312 539.188 c 0
151.812 216.562 m 1
 124.016 210.393 101.135 207.334 85.25 205.688 c 1
 85.25 60 l 1
 151.812 60 l 1
 151.812 216.562 l 1
EndSplineSet
Validated: 524321
EndChar

StartChar: three
Encoding: 51 51 36
Width: 506
VWidth: 0
Flags: W
HStem: -10 60<42.2815 193.67 269.406 341.64> 200.938 59.999<118.281 268.844> 335.938 60<118.281 268.844> 539.875 60<42.281 341.588>
VStem: 58.2812 60<260.938 335.938> 277.469 60.1875<129.24 200.938 395.938 462.514> 421.094 60<129.295 289.651 307.162 462.168>
LayerCount: 2
Fore
SplineSet
118.844 599.875 m 0
 143.781 599.875 167.723 595.615 190.094 587.875 c 0
 190.152 587.857 190.223 587.893 190.281 587.875 c 0
 212.863 595.709 237.145 599.875 262.281 599.875 c 0
 322.574 599.875 377.371 575.354 416.969 535.75 c 0
 456.578 496.152 481.094 447.986 481.094 387.688 c 0
 481.094 355.719 473.043 325.912 460.656 298.438 c 1
 473.084 270.928 481.094 241.039 481.094 209 c 0
 481.094 148.713 456.572 93.541 416.969 53.9375 c 0
 377.371 14.3398 322.574 -10 262.281 -10 c 0
 237.209 -10 213.004 -5.61133 190.469 2.1875 c 1
 167.98 -5.59961 143.934 -10 118.844 -10 c 0
 85.334 -10 53.3594 -2.33008 24.9062 11.1875 c 1
 50.5938 65.1875 l 1
 71.2363 55.3789 94.3633 50 118.844 50 c 0
 162.918 50 202.352 67.8828 231.156 96.6885 c 0
 258.209 123.74 275.447 160.115 277.469 200.938 c 1
 58.2812 200.938 l 1
 58.2812 395.938 l 1
 277.469 395.938 l 1
 275.406 436.719 258.162 466.188 231.156 493.188 c 0
 202.352 521.998 162.924 539.875 118.844 539.875 c 0
 94.3633 539.875 71.2422 534.49 50.5938 524.688 c 1
 24.9062 578.875 l 1
 53.3535 592.381 85.334 599.875 118.844 599.875 c 0
269.219 539.688 m 1
 270.637 538.346 272.154 537.127 273.531 535.75 c 0
 313.141 496.152 337.656 447.986 337.656 387.688 c 0
 337.656 355.719 329.793 325.912 317.406 298.438 c 1
 329.834 270.928 337.656 241.039 337.656 209 c 0
 337.656 148.713 313.135 93.541 273.531 53.9375 c 0
 272.213 52.6191 270.754 51.4707 269.406 50.1875 c 1
 310.609 51.9922 347.154 69.4355 374.406 96.6885 c 0
 403.217 125.498 421.094 164.932 421.094 209 c 0
 421.094 236.328 414.215 261.781 402.156 284.188 c 2
 394.656 298.438 l 1
 402.156 312.5 l 2
 414.215 334.906 421.094 360.383 421.094 387.688 c 0
 421.094 431.773 403.217 464.383 374.406 493.188 c 0
 347.119 520.48 310.498 537.93 269.219 539.688 c 1
118.281 335.938 m 1
 118.281 260.938 l 1
 268.844 260.938 l 1
 266.043 268.977 262.703 276.775 258.719 284.188 c 2
 251.219 298.438 l 1
 258.719 312.5 l 2
 262.732 319.959 266.031 327.834 268.844 335.938 c 1
 118.281 335.938 l 1
EndSplineSet
Validated: 524289
EndChar

StartChar: four
Encoding: 52 52 37
Width: 653
VWidth: 0
Flags: W
HStem: 0 21G<454.469 514.469> 0 21G<454.469 514.469> 130.312 60<167.594 257.031 341.219 454.469 514.469 627.906>
VStem: 454.469 60<0 130.312 190.312 306 391.875 483.188>
LayerCount: 2
Fore
SplineSet
514.469 630.375 m 5xb0
 514.469 190.312 l 5
 627.906 190.312 l 5
 627.906 130.312 l 5
 514.469 130.312 l 5
 514.469 0 l 5
 454.469 0 l 5
 454.469 130.312 l 5
 25.0938 130.312 l 5
 514.469 630.375 l 5xb0
454.469 483.188 m 5
 167.594 190.312 l 5
 257.031 190.312 l 5
 454.469 391.875 l 5
 454.469 483.188 l 5
454.469 306 m 5
 452.781 304.312 l 5
 341.219 190.312 l 5
 454.469 190.312 l 5
 454.469 306 l 5
EndSplineSet
Validated: 1
EndChar

StartChar: five
Encoding: 53 53 38
Width: 435
VWidth: 0
Flags: W
HStem: -9.875 60.9375<85.7218 256.437> 102.438 61.3115<84.8438 254.38> 329.688 61.125<84.8438 148.933> 414.062 60<211.406 375.469> 532.188 60<84.8438 151.406 211.406 375.469>
VStem: 24.8438 60<51.0625 102.438 390.812 532.188> 151.406 60<390.438 414.062 474.062 532.188>
LayerCount: 2
Fore
SplineSet
24.8438 592.188 m 1
 375.469 592.188 l 1
 375.469 532.188 l 1
 211.406 532.188 l 1
 211.406 474.062 l 1
 375.469 474.062 l 1
 375.469 414.062 l 1
 211.406 414.062 l 1
 211.406 382.75 l 2
 215.461 382.006 219.422 381.367 223.594 380.5 c 0
 267.176 371.453 312.486 355.768 348.656 325.75 c 0
 384.826 295.727 410.156 249.596 410.156 190.938 c 0
 410.156 132.279 384.826 85.9551 348.656 55.9375 c 0
 312.486 25.9141 267.182 10.2285 223.594 1.1875 c 0
 180.012 -7.85938 137.156 -9.91016 105.094 -9.875 c 0
 73.0312 -9.83984 51.8438 -7.8125 51.8438 -7.8125 c 1
 24.8438 -5 l 1
 24.8438 167.312 l 1
 58.2188 163.75 l 1
 58.2188 163.75 116.812 157.791 182.531 167.312 c 0
 245.555 176.447 308.93 199.932 336.281 248.312 c 1
 329.578 260.236 320.9 270.602 310.031 279.625 c 0
 285.205 300.227 249.146 313.979 211.406 321.812 c 0
 135.926 337.475 58.0312 329.688 58.0312 329.688 c 1
 24.8438 326.5 l 1
 24.8438 592.188 l 1
84.8438 532.188 m 1
 84.8438 390.812 l 1
 101.947 391.65 124.605 392.23 151.406 390.438 c 1
 151.406 532.188 l 1
 84.8438 532.188 l 1
348.094 170.125 m 1
 303.592 132.414 243.855 115.299 191.344 107.688 c 0
 146.443 101.184 110.725 101.412 84.8438 102.438 c 1
 84.8438 51.0625 l 1
 93.0938 50.6465 93.5449 50.1074 106.406 50.125 c 0
 135.34 50.1602 173.666 52.041 211.406 59.875 c 0
 249.146 67.7031 285.205 81.4551 310.031 102.062 c 0
 330.398 118.967 343.77 139.885 348.094 170.125 c 1
EndSplineSet
Validated: 524325
EndChar

StartChar: six
Encoding: 54 54 39
Width: 515
VWidth: 0
Flags: W
HStem: -10 60<174.247 340.885> 107.656 60<211.487 299.764> 570.469 20G<426.406 466.406> 586.172 20G<292.578 332.578 426.406 466.406>
VStem: 25 60<139.107 305.747> 134.688 60<184.46 273.669> 316.562 60<184.46 275.608> 430 60<139.108 305.429>
LayerCount: 2
Fore
SplineSet
257.5 -10 m 4xef
 193.475 -10 135.244 15.9277 93.2031 57.9688 c 4
 51.1504 100.004 25 158.469 25 222.5 c 4
 25 286.514 51.1562 344.75 93.2031 386.797 c 6
 312.578 606.172 l 5xdf
 355 563.75 l 5
 135.625 344.375 l 6
 104.371 313.115 85 270.307 85 222.5 c 4
 85 174.676 104.371 131.627 135.625 100.391 c 4
 166.873 69.1367 209.688 50 257.5 50 c 4
 305.312 50 348.355 69.1367 379.609 100.391 c 4
 410.857 131.633 430 174.676 430 222.5 c 4
 430 259.982 417.842 294.131 397.656 322.344 c 5
 359.922 288.594 l 5
 370.176 270.787 376.562 250.455 376.562 228.594 c 4
 376.562 195.395 363.039 164.902 341.172 143.047 c 4
 319.328 121.203 288.842 107.656 255.625 107.656 c 4
 222.414 107.656 191.922 121.197 170.078 143.047 c 4
 148.211 164.902 134.688 195.395 134.688 228.594 c 4
 134.688 261.799 148.205 292.285 170.078 314.141 c 6
 446.406 590.469 l 5
 488.828 548.047 l 5
 212.5 271.719 l 6
 201.449 260.674 194.688 245.592 194.688 228.594 c 4
 194.688 211.602 201.438 196.525 212.5 185.469 c 4
 223.539 174.424 238.633 167.656 255.625 167.656 c 4
 272.629 167.656 287.699 174.412 298.75 185.469 c 4
 309.812 196.525 316.562 211.602 316.562 228.594 c 4
 316.562 245.592 309.801 260.674 298.75 271.719 c 6
 276.25 293.984 l 5
 401.875 406.953 l 5
 422.031 386.797 l 6
 464.066 344.75 490 286.52 490 222.5 c 4
 490 158.469 464.072 100.004 422.031 57.9688 c 4
 379.99 15.9277 321.525 -10 257.5 -10 c 4xef
EndSplineSet
Validated: 524289
EndChar

StartChar: seven
Encoding: 55 55 40
Width: 548
VWidth: 0
Flags: W
HStem: 0 21G<28.8438 110.789 164.219 247.031> 0 21G<28.8438 110.789 164.219 247.031> 429.875 60<84.9062 274.844 383.031 413.781> 531.125 60<84.9062 338.406>
VStem: 24.9062 60<489.875 531.125>
LayerCount: 2
Fore
SplineSet
24.9062 591.125 m 1xb8
 446.781 591.125 l 1
 383.031 489.875 l 1
 523.094 489.875 l 1
 235.281 0 l 1
 164.219 0 l 1
 413.781 429.875 l 1
 345.344 429.875 l 1
 99.3438 0 l 1
 28.8438 0 l 1
 274.844 429.875 l 1
 24.9062 429.875 l 1
 24.9062 591.125 l 1xb8
84.9062 531.125 m 1
 84.9062 489.875 l 1
 312.344 489.875 l 1
 338.406 531.125 l 1
 84.9062 531.125 l 1
EndSplineSet
Validated: 524289
EndChar

StartChar: eight
Encoding: 56 56 41
Width: 503
VWidth: 0
Flags: W
HStem: 52.6738 60<314.715 404.632> 370.955 60<314.716 404.632> 539.781 60<164.159 292.885>
VStem: 24.9619 60<139.87 299.089 300.473 460.58> 134.649 60<94.6363 240.027 241.411 401.07> 242.491 60<126.514 215.383 268.248 357.117> 418.038 60<126.083 215.382 268.247 357.548>
LayerCount: 2
Fore
SplineSet
294.259 -11 m 1
 209.415 2.59375 l 2
 104.813 19.1348 24.9619 109.779 24.9619 218.688 c 0
 24.9619 247.398 31.501 274.586 41.6025 299.781 c 1
 31.501 324.982 24.9619 352.164 24.9619 380.875 c 0
 24.9619 501.461 123.276 599.781 243.868 599.781 c 0
 307.636 599.781 365.345 572.219 405.353 528.531 c 2
 463.478 465.25 l 1
 378.634 478.844 l 2
 370.495 480.139 362.093 480.719 353.556 480.719 c 0
 265.39 480.719 194.649 409.967 194.649 321.812 c 0
 194.649 297.344 200.081 274.252 209.884 253.609 c 2
 215.978 240.719 l 1
 209.884 227.828 l 2
 200.075 207.18 194.649 184.094 194.649 159.625 c 0
 194.649 118.082 210.429 80.623 236.368 52.2812 c 2
 294.259 -11 l 1
145.665 94 m 1
 139.062 114.871 134.649 136.645 134.649 159.625 c 0
 134.649 188.336 141.188 215.523 151.29 240.719 c 1
 141.188 265.92 134.649 293.102 134.649 321.812 c 0
 134.649 421.369 202.056 504.689 293.321 531.109 c 1
 277.683 536.254 261.312 539.781 243.868 539.781 c 0
 155.702 539.781 84.9619 469.029 84.9619 380.875 c 0
 84.9619 356.406 90.3936 333.314 100.196 312.672 c 2
 106.29 299.781 l 1
 100.196 286.891 l 2
 90.3877 266.242 84.9619 243.156 84.9619 218.688 c 0
 84.9619 167.822 108.757 123.045 145.665 94 c 1
360.382 52.6738 m 0
 295.706 52.6738 242.491 105.66 242.491 170.33 c 0
 242.491 197.254 252.229 221.916 267.569 241.814 c 1
 252.229 261.713 242.491 286.381 242.491 313.299 c 0
 242.491 377.975 295.706 430.955 360.382 430.955 c 0
 425.058 430.955 478.038 377.975 478.038 313.299 c 0
 478.038 286.387 468.522 261.707 453.194 241.814 c 1
 468.522 221.922 478.038 197.242 478.038 170.33 c 0
 478.038 105.66 425.058 52.6738 360.382 52.6738 c 0
360.382 112.674 m 0
 392.632 112.674 418.038 138.092 418.038 170.33 c 0
 418.038 189.936 408.429 206.928 393.663 217.439 c 2
 360.382 241.111 l 1
 326.866 217.439 l 2
 312.101 206.928 302.491 189.941 302.491 170.33 c 0
 302.491 138.092 328.138 112.674 360.382 112.674 c 0
360.382 242.518 m 1
 393.663 266.189 l 2
 408.435 276.713 418.038 293.699 418.038 313.299 c 0
 418.038 345.543 392.632 370.955 360.382 370.955 c 0
 328.144 370.955 302.491 345.543 302.491 313.299 c 0
 302.491 293.693 312.089 276.713 326.866 266.189 c 2
 360.382 242.518 l 1
EndSplineSet
Validated: 524289
EndChar

StartChar: nine
Encoding: 57 57 42
Width: 515
VWidth: 0
Flags: W
HStem: -0.0625 21G<48.5938 88.5599> -0.0625 21G<48.5938 88.5599> 422.516 60<215.237 304.063> 540.406 60<174.115 340.754>
VStem: 25 60<284.813 451.154> 138.438 60<314.5 405.778> 320.312 60<316.805 405.711> 430 60<284.513 451.152>
LayerCount: 2
Fore
SplineSet
202.422 -16 m 1xbf
 160 26.4219 l 1
 379.375 245.797 l 2
 410.629 277.033 430 320.082 430 367.906 c 0
 430 415.713 410.629 458.521 379.375 489.781 c 0
 348.127 521.029 305.312 540.406 257.5 540.406 c 0
 209.688 540.406 166.645 521.029 135.391 489.781 c 0
 104.137 458.521 85 415.713 85 367.906 c 0
 85 330.359 97.1172 296.047 117.344 267.828 c 1
 154.844 301.578 l 1
 144.584 319.379 138.438 339.945 138.438 361.812 c 0
 138.438 395.023 151.949 425.281 173.828 447.125 c 0
 195.672 468.992 226.164 482.516 259.375 482.516 c 0
 292.516 482.516 322.85 468.922 344.688 447.125 c 1
 344.688 446.891 l 1
 366.484 425.053 380.312 394.959 380.312 361.812 c 0
 380.312 328.672 366.479 298.338 344.688 276.5 c 2
 68.5938 -0.0625 l 1
 26.1719 42.3594 l 1
 302.266 318.688 l 2
 313.117 331.695 320.102 348.107 320.312 361.812 c 0
 320.312 378.822 313.551 393.664 302.5 404.703 c 0
 288.777 415.068 273.303 422.305 259.375 422.516 c 0
 242.365 422.516 227.301 415.76 216.25 404.703 c 0
 205.199 393.664 198.438 378.822 198.438 361.812 c 0
 198.438 344.809 205.188 329.732 216.25 318.688 c 2
 238.516 296.188 l 1
 113.125 183.219 l 1
 92.9688 203.375 l 2
 50.9219 245.41 25 303.869 25 367.906 c 0
 25 431.926 50.9336 490.156 92.9688 532.203 c 0
 135.01 574.244 193.475 600.406 257.5 600.406 c 0
 321.525 600.406 379.756 574.244 421.797 532.203 c 0
 463.844 490.15 490 431.92 490 367.906 c 0
 490 303.875 463.85 245.41 421.797 203.375 c 2
 202.422 -16 l 1xbf
EndSplineSet
Validated: 524289
EndChar

StartChar: Euro
Encoding: 8364 8364 43
Width: 506
VWidth: 0
Flags: W
HStem: -10 60<164.319 236.688 311.664 463.717> 226.25 60<258.125 417.625> 329.938 60<237.062 417.625> 540.875 60<163.991 236.688 311.665 463.716>
VStem: 24.8125 60<129.263 287.487 301.224 461.605> 168.25 60<129.263 226.101 389.938 461.774>
LayerCount: 2
Fore
SplineSet
243.812 600.875 m 0
 268.943 600.875 293.23 596.521 315.812 588.688 c 1
 338.225 596.416 362.061 600.875 387.062 600.875 c 0
 420.572 600.875 452.734 593.205 481.188 579.688 c 1
 455.312 525.5 l 1
 434.664 535.309 411.537 540.875 387.062 540.875 c 0
 342.982 540.875 303.742 523.18 274.938 494.375 c 0
 247.879 467.322 230.453 430.783 228.438 389.938 c 1
 417.625 389.938 l 1
 417.625 329.938 l 1
 237.062 329.938 l 1
 239.863 321.875 243.191 314.117 247.188 306.688 c 2
 254.688 292.438 l 1
 258.125 286.25 l 1
 417.625 286.25 l 1
 417.625 226.25 l 1
 229.188 226.25 l 2
 228.578 220.631 228.25 214.795 228.25 209 c 0
 228.25 164.914 246.133 125.305 274.938 96.5 c 0
 303.742 67.6895 342.982 50 387.062 50 c 0
 411.543 50 434.664 55.5723 455.312 65.375 c 1
 481.188 11 l 1
 452.74 -2.50586 420.578 -10 387.062 -10 c 0
 362.078 -10 338.219 -5.76953 315.812 2 c 1
 293.23 -5.83398 268.949 -10 243.812 -10 c 0
 183.52 -10 128.535 14.5215 88.9375 54.125 c 0
 49.3281 93.7227 24.8125 148.701 24.8125 209 c 0
 24.8125 240.963 32.8633 264.963 45.25 292.438 c 1
 32.8164 319.947 24.8125 349.836 24.8125 381.875 c 0
 24.8125 442.162 49.334 497.146 88.9375 536.75 c 0
 128.535 576.348 183.52 600.875 243.812 600.875 c 0
235.562 540.688 m 0
 194.811 538.648 158.5 521.381 131.5 494.375 c 0
 102.684 465.564 84.8125 425.943 84.8125 381.875 c 0
 84.8125 354.547 91.6914 329.094 103.75 306.688 c 2
 111.25 292.438 l 1
 103.75 284.375 l 2
 86.4199 265.745 84.8125 236.305 84.8125 209 c 0
 84.8125 164.914 102.689 125.305 131.5 96.5 c 0
 158.746 69.248 195.484 51.9922 236.688 50.1875 c 1
 235.305 51.5 233.91 52.7773 232.562 54.125 c 0
 192.953 93.7227 168.25 148.701 168.25 209 c 0
 168.25 240.963 176.295 264.963 188.688 292.438 c 1
 176.254 319.947 168.25 349.836 168.25 381.875 c 0
 168.25 442.162 192.953 497.146 232.562 536.75 c 0
 233.91 538.098 235.305 539.375 236.688 540.688 c 1
 236.312 540.67 235.938 540.705 235.562 540.688 c 0
EndSplineSet
Validated: 524289
EndChar

StartChar: dollar
Encoding: 36 36 44
Width: 504
VWidth: 0
Flags: W
HStem: -10 60<253.869 307.344> 141.875 60<25.3125 105.008> 177.5 60<249.938 306.151> 314.062 60<249.938 304.942> 427.125 60<375.167 464.625> 580 20G<200.586 273.969> 580 20G<200.586 273.969>
VStem: 78.75 60<270.512 353.154> 97.125 60<102.477 142.25 407.086 512.81> 189.938 60<88.625 177.5 390.938 523.312> 308.062 60<73.25 132.875 373.125 427.125> 419.062 60<167.531 246.303>
LayerCount: 2
Fore
SplineSet
239.812 600 m 0xdcf0
 308.127 600 367.23 551.824 381.375 487.125 c 1
 464.625 487.125 l 1
 464.625 427.125 l 1
 368.062 427.125 l 1
 368.062 356.438 l 1
 433.541 325.898 479.062 249.09 479.062 172.438 c 0
 479.062 67.3086 391.424 -10 288.188 -10 c 2
 288.006 -10 l 2
 195.041 -10 115.412 53 100.312 142.25 c 1
 25.3125 141.875 l 1
 24.9375 201.875 l 1
 141.75 202.625 l 1
 103.887 228.371 78.75 281.613 78.75 330.562 c 0xdd70
 78.75 360.756 88.2949 389.139 104.438 412.312 c 1
 99.7207 426.422 97.125 441.475 97.125 457.125 c 0
 97.125 535.582 161.361 600 239.812 600 c 0xdcf0
249.938 539.438 m 1
 249.938 374.062 l 1
 288.75 374.062 l 2
 295.236 374.039 301.74 373.793 308.062 373.125 c 2
 308.062 506.062 l 1
 294.357 524.039 273.439 536.619 249.938 539.438 c 1
189.938 523.312 m 1
 170.021 508.23 157.125 484.283 157.125 457.125 c 0x98f0
 157.125 429.955 170.021 406.072 189.938 390.938 c 1
 189.938 523.312 l 1
142.125 353.812 m 1
 140.197 347.039 139.125 338.736 138.75 330.562 c 0
 138.75 284.514 175.4 237.5 221.438 237.5 c 2
 270.562 237.5 l 2xb970
 330.422 237.277 383.936 208.842 418.875 165.312 c 1
 418.986 167.662 419.062 170.035 419.062 172.438 c 0
 419.062 245.164 360.896 314.062 288.188 314.062 c 2
 239.062 314.062 l 2
 201.592 314.25 167.572 329.842 142.125 353.812 c 1
157.125 193.438 m 1x98f0
 157.125 172.438 l 2
 157.125 138.658 169.4 109.807 189.938 88.625 c 1
 189.938 181.25 l 1
 178.43 184.033 167.42 188.188 157.125 193.438 c 1x98f0
249.938 177.5 m 1xb870
 249.938 54.6875 l 1
 261.973 51.6172 274.752 50 288.188 50 c 0
 294.943 50 301.635 50.5215 308.062 51.3125 c 2
 308.062 171.688 l 1
 296.01 175.367 283.09 177.5 269.812 177.5 c 2
 249.938 177.5 l 1xb870
368.062 132.875 m 1
 368.062 73.25 l 1
 376.945 79.2969 384.861 86.3516 391.693 94.4385 c 1
 386.057 108.611 378.018 121.584 368.062 132.875 c 1
EndSplineSet
Validated: 524289
EndChar

StartChar: yen
Encoding: 165 165 45
Width: 750
VWidth: 0
Flags: W
HStem: 0 21G<290.062 352.125 399.75 459.75> 0 21G<290.062 352.125 399.75 459.75> 248.812 60.001<134.438 290.062 459.75 632.25> 358.5 60<134.438 197.25 552.938 632.25> 571 20G<24.75 129.484 173.25 278.188 473.688 578.625 620.5 725.25> 571 20G<24.75 129.484 173.25 278.188 473.688 578.625 620.5 725.25>
VStem: 290.062 62.063<0 217.875 308.812 325.688> 399.75 60<0 248.812>
LayerCount: 2
Fore
SplineSet
24.75 591 m 1xbb
 109.5 591 l 1
 350.062 350.25 l 1
 350.062 300.562 l 1
 640.5 591 l 1
 725.25 591 l 1
 552.938 418.5 l 1
 632.25 418.5 l 1
 632.25 358.5 l 1
 492.938 358.5 l 1
 459.75 325.312 l 1
 459.75 308.812 l 1
 632.25 308.812 l 1
 632.25 248.812 l 1
 459.75 248.812 l 1
 459.75 0 l 1
 399.75 0 l 1
 399.75 265.5 l 1
 352.125 217.875 l 1
 352.125 0 l 1
 290.062 0 l 1
 290.062 248.812 l 1
 134.438 248.812 l 1
 134.438 308.812 l 1
 290.062 308.812 l 1
 290.062 325.688 l 1
 257.25 358.5 l 1
 134.438 358.5 l 1
 134.438 418.5 l 1
 197.25 418.5 l 1
 24.75 591 l 1xbb
173.25 591 m 1
 258.188 591 l 1
 375.938 473.25 l 1
 493.688 591 l 1
 578.625 591 l 1
 375.938 388.125 l 1
 173.25 591 l 1
EndSplineSet
Validated: 524289
EndChar

StartChar: greater
Encoding: 62 62 46
Width: 463
VWidth: 0
Flags: W
HStem: 580.875 20G<24.9688 59.6344> 580.875 20G<24.9688 59.6344>
VStem: 25.1562 60<49.25 158.75 387.5 497>
LayerCount: 2
Fore
SplineSet
24.9688 600.875 m 5xa0
 438.031 362.562 l 5
 283.156 273.125 l 5
 438.031 183.875 l 5
 25.1562 -54.625 l 5
 25.1562 193.438 l 5
 163.156 273.125 l 5
 24.9688 352.812 l 5
 24.9688 600.875 l 5xa0
84.9688 497 m 5
 84.9688 387.5 l 5
 223.156 307.812 l 5
 318.031 362.562 l 5
 84.9688 497 l 5
223.156 238.438 m 5
 85.1562 158.75 l 5
 85.1562 49.25 l 5
 318.031 183.875 l 5
 223.156 238.438 l 5
EndSplineSet
Validated: 1
EndChar

StartChar: less
Encoding: 60 60 47
Width: 463
VWidth: 0
Flags: W
LayerCount: 2
Fore
SplineSet
438.031 600.875 m 5
 24.9688 362.562 l 5
 179.844 273.125 l 5
 24.9688 183.875 l 5
 437.844 -54.625 l 5
 437.844 193.438 l 5
 299.844 273.125 l 5
 438.031 352.812 l 5
 438.031 600.875 l 5
378.031 497 m 5
 378.031 387.5 l 5
 239.844 307.812 l 5
 144.969 362.562 l 5
 378.031 497 l 5
239.844 238.438 m 5
 377.844 158.75 l 5
 377.844 49.25 l 5
 144.969 183.875 l 5
 239.844 238.438 l 5
EndSplineSet
Validated: 9
EndChar

StartChar: e
Encoding: 101 101 48
Width: 463
VWidth: 0
Flags: W
HStem: 583.516 20G<358.317 404.515>
VStem: 377.984 60<245.641 346.641>
LayerCount: 2
Fore
SplineSet
392.984 -11 m 1
 25.0156 201.344 l 1
 179.938 301.641 l 1
 25.0156 391.172 l 1
 70.0156 417.188 l 1
 392.984 603.516 l 1
 422.984 551.484 l 1
 145.016 391.172 l 1
 239.938 336.328 l 1
 437.984 450.703 l 1
 437.984 141.812 l 1
 239.938 255.953 l 1
 145.016 201.344 l 1
 422.984 40.7969 l 1
 392.984 -11 l 1
377.984 245.641 m 1
 377.984 346.641 l 1
 299.938 301.641 l 1
 377.984 245.641 l 1
EndSplineSet
Validated: 524289
EndChar

StartChar: guillemotleft
Encoding: 171 171 49
Width: 914
VWidth: 0
Flags: W
LayerCount: 2
Fore
SplineSet
889.031 600.875 m 5
 475.969 362.562 l 5
 630.844 273.125 l 5
 475.969 183.875 l 5
 888.844 -54.625 l 5
 888.844 193.438 l 5
 750.844 273.125 l 5
 889.031 352.812 l 5
 889.031 600.875 l 5
829.031 497 m 5
 829.031 387.5 l 5
 690.844 307.812 l 5
 595.969 362.562 l 5
 829.031 497 l 5
690.844 238.438 m 5
 828.844 158.75 l 5
 828.844 49.25 l 5
 595.969 183.875 l 5
 690.844 238.438 l 5
438.031 617.875 m 5
 24.9688 379.562 l 5
 179.844 290.125 l 5
 24.9688 200.875 l 5
 437.844 -37.625 l 5
 437.844 210.438 l 5
 299.844 290.125 l 5
 438.031 369.812 l 5
 438.031 617.875 l 5
378.031 514 m 5
 378.031 404.5 l 5
 239.844 324.812 l 5
 144.969 379.562 l 5
 378.031 514 l 5
239.844 255.438 m 5
 377.844 175.75 l 5
 377.844 66.25 l 5
 144.969 200.875 l 5
 239.844 255.438 l 5
EndSplineSet
Validated: 9
EndChar

StartChar: guillemotright
Encoding: 187 187 50
Width: 914
VWidth: 0
Flags: W
HStem: 580.875 20G<24.9688 59.6344> 580.875 20G<24.9688 59.6344>
VStem: 25.1562 60<49.25 158.75 387.5 497> 476.156 60<66.25 175.75 404.5 514>
LayerCount: 2
Fore
SplineSet
24.9688 600.875 m 5xb0
 438.031 362.562 l 5
 283.156 273.125 l 5
 438.031 183.875 l 5
 25.1562 -54.625 l 5
 25.1562 193.438 l 5
 163.156 273.125 l 5
 24.9688 352.812 l 5
 24.9688 600.875 l 5xb0
84.9688 497 m 5
 84.9688 387.5 l 5
 223.156 307.812 l 5
 318.031 362.562 l 5
 84.9688 497 l 5
223.156 238.438 m 5
 85.1562 158.75 l 5
 85.1562 49.25 l 5
 318.031 183.875 l 5
 223.156 238.438 l 5
475.969 617.875 m 5
 889.031 379.562 l 5
 734.156 290.125 l 5
 889.031 200.875 l 5
 476.156 -37.625 l 5
 476.156 210.438 l 5
 614.156 290.125 l 5
 475.969 369.812 l 5
 475.969 617.875 l 5
535.969 514 m 5
 535.969 404.5 l 5
 674.156 324.812 l 5
 769.031 379.562 l 5
 535.969 514 l 5
674.156 255.438 m 5
 536.156 175.75 l 5
 536.156 66.25 l 5
 769.031 200.875 l 5
 674.156 255.438 l 5
EndSplineSet
Validated: 1
EndChar

StartChar: w_w_w
Encoding: 57344 57344 51
Width: 1676
VWidth: 0
Flags: W
HStem: 524.688 67.5<133.188 221.5>
LayerCount: 2
Fore
SplineSet
25 592.188 m 1
 251.688 592.188 l 1
 410.688 315.188 l 1
 369.625 260.812 l 1
 221.5 524.688 l 1
 133.188 524.688 l 1
 369.625 108 l 1
 645.25 592.188 l 1
 714.438 592.188 l 1
 369.625 -12 l 1
 25 592.188 l 1
799.938 592.188 m 1
 869.125 592.188 l 1
 681.812 260.812 l 1
 628.562 353.25 l 1
 668.125 404.812 l 1
 681.812 380.812 l 1
 799.938 592.188 l 1
957.438 592.188 m 1
 1026.62 592.188 l 1
 681.812 -12 l 1
 562.562 197.062 l 1
 596.312 256.125 l 1
 681.812 108 l 1
 882.062 461.688 l 1
 881.875 462.062 l 1
 916.562 522.25 l 1
 916.75 521.875 l 1
 957.438 592.188 l 1
1112.12 592.188 m 1
 1181.31 592.188 l 1
 994 260.812 l 1
 940.75 353.25 l 1
 980.312 404.812 l 1
 994 380.812 l 1
 1112.12 592.188 l 1
1269.62 592.188 m 1
 1338.81 592.188 l 1
 994 -12 l 1
 874.75 197.062 l 1
 908.5 256.125 l 1
 994 108 l 1
 1269.62 592.188 l 1
1424.31 592.188 m 1
 1493.5 592.188 l 1
 1306.19 260.812 l 1
 1252.94 353.25 l 1
 1292.5 404.812 l 1
 1306.19 380.812 l 1
 1424.31 592.188 l 1
1581.81 592.188 m 1
 1651 592.188 l 1
 1306.19 -12 l 1
 1186.94 197.062 l 1
 1220.69 256.125 l 1
 1306.19 108 l 1
 1581.81 592.188 l 1
EndSplineSet
Validated: 524289
LCarets2: 2 0 0 
Ligature2: "Ligature Substitution in Latin lookup 0-1" w W W
Ligature2: "Ligature Substitution in Latin lookup 0-1" w W w
Ligature2: "Ligature Substitution in Latin lookup 0-1" w w W
Ligature2: "Ligature Substitution in Latin lookup 0-1" W W w
Ligature2: "Ligature Substitution in Latin lookup 0-1" W w w
Ligature2: "Ligature Substitution in Latin lookup 0-1" W W W
Ligature2: "Ligature Substitution in Latin lookup 0-1" w w w
EndChar

StartChar: a
Encoding: 97 97 53
Width: 766
VWidth: 0
Flags: W
HStem: -33.75 60<532.812 634.062> 0 21G<25.25 106.18 195.875 276.803> 0 21G<25.25 106.18 195.875 276.803> 580 20G<360.381 383.577> 580 20G<360.381 383.577>
LayerCount: 2
Fore
SplineSet
371.938 656 m 1x50
 740.75 0.25 l 1
 496.812 0.25 l 1x90
 371.938 240.688 l 1
 265.25 0 l 1
 195.875 0 l 1x40
 371.938 360.688 l 1
 532.812 60.25 l 1
 634.062 60.25 l 1x80
 371.938 536 l 1
 94.625 0 l 1
 25.25 0 l 1
 371.938 656 l 1x50
EndSplineSet
Validated: 524289
EndChar

StartChar: b
Encoding: 98 98 54
Width: 554
VWidth: 0
Flags: W
HStem: 0 58.5<84.8125 151.375 211.375 393.251> 142.312 60<211.375 292.103> 375.375 59.9062<211.375 260.846> 539.906 60.0938<84.8125 151.375 211.375 329.179>
VStem: 24.8125 60<58.5 539.906> 151.375 60<58.5 142.312 202.312 375.375 435.281 539.906> 263.125 60<326.639 373.541> 303.25 60<214.367 295.456> 376.375 60<388.967 493.784> 469.188 60<134.359 297.923>
LayerCount: 2
Fore
SplineSet
24.8125 600 m 5xfcc0
 263.875 600 l 6
 358.844 600 436.375 522.65 436.375 427.688 c 4
 436.375 417.732 435.385 407.941 433.75 398.438 c 5
 491.271 358.928 529.188 292.676 529.188 217.875 c 4
 529.188 106.535 448.609 12.2051 340 0 c 5
 24.8125 0 l 5
 24.8125 600 l 5xfcc0
263.875 539.906 m 6
 211.375 539.906 l 5
 211.375 435.281 l 5
 231.625 435.281 l 6
 281.834 435.281 323.125 394.096 323.125 343.875 c 4xfec0
 323.125 342.246 322.645 340.799 322.562 339.188 c 4
 347.195 318.668 363.25 288.211 363.25 253.875 c 4xfdc0
 363.25 191.367 310.152 142.312 248.875 142.312 c 6
 211.375 142.312 l 5
 211.375 58.5 l 5
 316.375 58.875 l 6
 404.547 58.875 469.188 128.525 469.188 217.875 c 4
 469.188 278.701 435.396 331.107 385.562 357.938 c 6
 363.438 369.75 l 5
 370.938 393.562 l 6
 374.377 404.355 376.375 415.74 376.375 427.688 c 4
 376.375 490.225 326.418 539.906 263.875 539.906 c 6
84.8125 539.906 m 5
 84.8125 58.5 l 5
 151.375 58.5 l 5
 151.375 539.906 l 5
 84.8125 539.906 l 5
211.375 375.375 m 5
 211.375 202.312 l 5
 248.875 202.312 l 6
 277.732 202.312 303.25 226.26 303.25 253.875 c 4xfdc0
 303.25 273.727 292.34 290.537 276.25 299.25 c 6
 254.5 311.062 l 5
 261.812 334.688 l 6
 262.715 337.611 263.125 340.588 263.125 343.875 c 4
 263.125 361.664 249.414 375.375 231.625 375.375 c 6
 211.375 375.375 l 5
EndSplineSet
Validated: 524289
EndChar

StartChar: c
Encoding: 99 99 55
Width: 583
VWidth: 0
Flags: W
HStem: -12 60<225.289 423.569> 107.25 60<255.816 393.188> 408.562 60<256.375 393.678> 528 60<225.992 421.224>
VStem: 24.7812 60<188.399 386.789> 144.219 60<218.969 356.406>
LayerCount: 2
Fore
SplineSet
324.781 600 m 0
 401.51 600 478.391 570.51 536.844 512.062 c 2
 558.219 490.875 l 1
 431.469 364.125 l 1
 410.094 385.312 l 2
 386.404 409.002 355.707 420.562 324.781 420.562 c 0
 293.855 420.562 263.158 409.002 239.469 385.312 c 0
 215.779 361.623 204.219 330.926 204.219 300 c 0
 204.219 269.074 215.779 226.377 239.469 202.688 c 0
 263.158 178.998 293.855 167.25 324.781 167.25 c 0
 355.707 167.25 386.404 178.998 410.094 202.688 c 1
 452.469 160.125 l 1
 417.312 124.969 370.971 107.25 324.781 107.25 c 0
 288.102 107.25 251.357 118.588 220.156 140.812 c 1
 177.781 98.4375 l 1
 220.994 64.7812 272.727 48 324.781 48 c 0
 386.246 48 447.477 71.3262 494.469 118.312 c 1
 536.844 75.75 l 1
 478.385 17.3027 401.51 -12 324.781 -12 c 0
 248.053 -12 171.178 17.3027 112.719 75.75 c 0
 54.2715 134.203 24.7812 223.271 24.7812 300 c 0
 24.7812 376.729 54.2715 453.609 112.719 512.062 c 0
 171.172 570.51 248.053 600 324.781 600 c 0
324.781 540 m 0
 263.316 540 202.086 516.674 155.094 469.688 c 0
 108.107 422.695 84.7812 361.465 84.7812 300 c 0
 84.7812 247.928 101.721 184.031 135.406 140.812 c 1
 177.781 183.188 l 1
 155.48 214.424 144.219 263.262 144.219 300 c 0
 144.219 346.189 161.938 392.531 197.094 427.688 c 0
 232.25 462.844 278.592 480.562 324.781 480.562 c 0
 361.467 480.562 398.006 468.85 429.219 446.625 c 1
 471.219 488.812 l 1
 428.041 522.375 376.76 540 324.781 540 c 0
EndSplineSet
Validated: 524289
EndChar

StartChar: d
Encoding: 100 100 56
Width: 599
VWidth: 0
Flags: W
HStem: -0.1875 60<86.3125 151.562 211.094 288.625> 102.375 60<211.094 388.375> 421.875 61.125<211.094 318.44> 532.688 60<84.8125 370.27>
VStem: 26.3125 60<60 532.688> 151.562 59.5312<60 102.375 162.375 421.875> 412.938 60<163.432 338.08> 514.188 60<177.219 390.188>
LayerCount: 2
Fore
SplineSet
24.8125 592.688 m 1
 274.188 592.688 l 2
 439.521 592.688 574.188 458.016 574.188 292.688 c 0
 574.188 215.725 551.541 136.289 506.5 76.3125 c 1
 380.688 76.3125 l 1
 383.26 84.416 385.779 93.0762 388.375 102.375 c 1
 211.094 102.375 l 1
 211.094 59.8125 l 1
 323.688 59.8125 l 1
 288.625 -0.1875 l 1
 26.3125 0 l 1
 24.8125 592.688 l 1
84.8125 532.688 m 1
 86.3125 60 l 1
 151.562 60 l 1
 150.438 483 l 1
 189.812 483 l 2
 268.521 483 338.406 467.238 390.438 427.5 c 0
 442.469 387.762 472.938 323.596 472.938 242.062 c 0
 472.938 207.592 464.705 161.584 454.188 117.188 c 0
 453.15 112.799 452.055 109.283 451 105 c 1
 491.107 153.908 514.188 223.33 514.188 292.688 c 0
 514.188 425.59 407.096 532.688 274.188 532.688 c 2
 84.8125 532.688 l 1
211.094 421.875 m 1
 211.094 162.375 l 1
 402.625 162.375 l 1
 408.848 193.963 412.938 224.139 412.938 242.062 c 0
 412.938 309.65 391.498 351.24 354.25 379.688 c 0
 320.869 405.182 271.586 419.109 211.094 421.875 c 1
EndSplineSet
Validated: 524289
EndChar

StartChar: f
Encoding: 102 102 57
Width: 606
VWidth: 0
Flags: W
HStem: 0 60<87.8438 145.969> 253.125 60<87.8438 143.156 208.781 286.594> 393.75 65.625<90.6562 143.156 208.781 286.594> 537.188 65.625<90.6562 143.156 208.781 580.969>
VStem: 27.8438 60<60 253.125 459.375 537.188> 143.156 65.625<60 250.312 315.938 393.75 459.375 537.188> 286.594 65.625<315.938 393.75>
LayerCount: 2
Fore
SplineSet
25.0312 592.812 m 1
 580.969 592.812 l 1
 580.969 527.188 l 1
 208.781 527.188 l 1
 208.781 449.375 l 1
 352.219 449.375 l 1
 352.219 240.312 l 1
 205.969 240.312 l 1
 205.969 0 l 1
 27.8438 0 l 1
 27.8438 303.125 l 1
 143.156 303.125 l 1
 143.156 383.75 l 1
 25.0312 383.75 l 1
 25.0312 592.812 l 1
90.6562 527.188 m 1
 90.6562 449.375 l 1
 143.156 449.375 l 1
 143.156 527.188 l 1
 90.6562 527.188 l 1
208.781 383.75 m 1
 208.781 305.938 l 1
 286.594 305.938 l 1
 286.594 383.75 l 1
 208.781 383.75 l 1
87.8438 243.125 m 1
 87.8438 60 l 1
 145.969 60 l 1
 145.969 243.125 l 1
 87.8438 243.125 l 1
EndSplineSet
Validated: 524289
EndChar

StartChar: g
Encoding: 103 103 58
Width: 639
VWidth: 0
Flags: W
HStem: 0 60<227.716 420.492> 135 60<261.693 388.647> 253.125 60<316.781 418.969 481.781 595.219> 396.562 60<326.05 506.719> 405 60<261.693 505.126> 540 60<227.716 423.215>
VStem: 25.2188 60<202.499 397.501> 160.219 60<236.475 363.529> 421.781 60<73.2944 166.688>
LayerCount: 2
Fore
SplineSet
325.219 600 m 4xef80
 439.834 600 539.924 535.441 590.344 440.625 c 6
 613.781 396.562 l 5
 366.469 396.562 l 6xf780
 353.232 401.654 340.893 404.238 325.219 405 c 4
 266.871 405 220.219 358.354 220.219 300 c 4
 220.219 241.658 266.877 195 325.219 195 c 4
 366.568 195 401.818 218.695 418.969 253.125 c 5
 316.781 253.125 l 5
 316.781 313.125 l 5
 595.219 313.125 l 5
 595.219 253.125 l 5
 481.781 253.125 l 5
 481.781 43.6875 l 5
 465.844 35.25 l 6
 423.902 12.9375 375.961 0 325.219 0 c 4
 159.885 0 25.2188 134.672 25.2188 300 c 4
 25.2188 465.328 159.885 600 325.219 600 c 4xef80
325.219 540 m 4
 192.311 540 85.2188 432.902 85.2188 300 c 4
 85.2188 167.098 192.311 60 325.219 60 c 4
 359.889 60 392.109 68.5723 421.781 81.75 c 5
 421.781 166.688 l 5
 394.605 146.912 361.283 135 325.219 135 c 4
 234.445 135 160.219 209.227 160.219 300 c 4
 160.219 390.779 234.451 465 325.219 465 c 4xef80
 342.961 465 359.824 461.689 375.656 456.562 c 6
 506.719 456.562 l 5
 462.773 507.516 398.016 540 325.219 540 c 4
EndSplineSet
Validated: 524289
EndChar

StartChar: h
Encoding: 104 104 59
Width: 573
VWidth: 0
Flags: W
HStem: 0 21G<24.9375 84 143.062 202.125 370.875 429.938 489 548.062> 0 21G<24.9375 84 143.062 202.125 370.875 429.938 489 548.062> 181.5 59.0625<202.125 370.875 429.938 489> 299.625 59.0625<202.125 370.875 429.938 489> 510.562 59.0625<429.938 489> 520 20G<24.9375 84 143.062 202.125>
VStem: 24.9375 59.0625<0 540> 143.062 59.0625<0 181.5 240.562 299.625 358.688 540> 370.875 59.0625<0 181.5 358.688 510.562> 489 59.0625<0 181.5 358.688 510.562>
LayerCount: 2
Fore
SplineSet
370.875 593.625 m 1x3bc0
 548.062 593.625 l 1x3bc0
 548.062 323.625 l 1
 202.125 323.625 l 1
 202.125 264.562 l 1
 548.062 264.562 l 1
 548.062 0 l 1
 489 0 l 1
 489 205.5 l 1
 429.938 205.5 l 1
 429.938 0 l 1
 370.875 0 l 1
 370.875 205.5 l 1
 202.125 205.5 l 1
 202.125 0 l 1
 143.062 0 l 1
 143.062 593 l 1
 202.125 593 l 1xb7c0
 202.125 382.688 l 1
 370.875 382.688 l 1
 370.875 593.625 l 1x3bc0
24.9375 593 m 1xb7c0
 84 593 l 1
 84 0 l 1
 24.9375 0 l 1
 24.9375 593 l 1xb7c0
429.938 534.562 m 1x3bc0
 429.938 382.688 l 1
 489 382.688 l 1
 489 534.562 l 1
 429.938 534.562 l 1x3bc0
EndSplineSet
Validated: 524289
EndChar

StartChar: i
Encoding: 105 105 60
Width: 227
VWidth: 0
Flags: W
HStem: 0 21G<24.9062 83.9688 143.031 202.094> 0 21G<24.9062 83.9688 143.031 202.094> 510.562 59.0625<83.9688 143.031>
VStem: 24.9062 59.0625<0 510.562> 143.031 59.0625<0 510.562>
LayerCount: 2
Fore
SplineSet
24.9062 591.625 m 1xb8
 202.094 591.625 l 1
 202.094 0 l 1
 143.031 0 l 1
 143.031 532.562 l 1
 83.9688 532.562 l 1
 83.9688 0 l 1
 24.9062 0 l 1
 24.9062 591.625 l 1xb8
EndSplineSet
Validated: 524289
EndChar

StartChar: j
Encoding: 106 106 61
Width: 503
VWidth: 0
Flags: W
HStem: 0 21G<257.037 360.062> 0 21G<257.037 360.062> 176.531 60<116.125 230.5> 539.719 59.0625<359.688 418.75>
VStem: 300.625 59.4375<60.8438 129.147 185.156 539.719> 418.75 59.0625<29.3438 539.719>
LayerCount: 2
Fore
SplineSet
300.625 592.781 m 1xbc
 477.812 592.781 l 1
 477.812 -9.65625 l 1
 418.75 -9.65625 l 1
 418.75 539.719 l 1
 359.688 539.719 l 1
 360.062 -10 l 1
 321.625 -10 l 2
 192.449 -10 82.082 71.2402 40 186.219 c 2
 25.1875 226.531 l 1
 230.5 226.531 l 1
 239.5 218.094 l 2
 257.488 200.715 277.996 186.225 300.625 175.156 c 1
 300.625 313.033 300.625 454.904 300.625 592.781 c 1xbc
116.125 166.531 m 1
 154.492 102.424 221.512 57.8633 300.062 50.8438 c 1
 300.062 110.469 l 1
 265.668 123.488 234.613 142.607 207.625 166.531 c 1
 116.125 166.531 l 1
EndSplineSet
Validated: 524289
EndChar

StartChar: k
Encoding: 107 107 62
Width: 682
VWidth: 0
Flags: W
HStem: 0 59.5312<429.5 513.5> 550.152 20G<25.0625 84.125 126.312 185.375 340.694 444.125 507.568 606.875> 550.152 20G<25.0625 84.125 126.312 185.375 340.694 444.125 507.568 606.875>
VStem: 25.0625 59.0625<30.0938 321.469 405.094 570.152> 126.312 59.0625<30.0938 220.219 362.906 387.281 394.781 570.152>
LayerCount: 2
Fore
SplineSet
25.0625 593.152 m 1xd8
 84.125 593.152 l 1
 84.125 405.094 l 1
 126.312 362.906 l 1
 126.312 593.152 l 1
 185.375 593.152 l 1
 185.375 394.781 l 1
 360.688 593.152 l 1
 444.125 593.152 l 1
 265.062 391.031 l 1
 306.688 349.219 l 1
 527.562 593.152 l 1
 606.875 593.152 l 1
 348.5 307.594 l 1
 656.938 0 l 1
 405.125 0 l 1
 185.375 220.219 l 1
 185.375 0.09375 l 1
 126.312 0.09375 l 1
 126.312 279.281 l 1
 84.125 321.469 l 1
 84.125 0.09375 l 1
 25.0625 0.09375 l 1
 25.0625 593.152 l 1xd8
185.375 387.281 m 1
 185.375 303.844 l 1
 429.5 59.5312 l 1
 513.5 59.1562 l 1
 185.375 387.281 l 1
EndSplineSet
Validated: 524289
EndChar

StartChar: l
Encoding: 108 108 63
Width: 451
VWidth: 0
Flags: W
HStem: 0 60<84.875 426.125> 126.562 60<219.875 426.125> 540 60<84.875 159.875>
VStem: 24.875 60<60 540> 159.875 60<186.562 540>
LayerCount: 2
Fore
SplineSet
24.875 0 m 1
 24.875 593 l 5
 219.875 593 l 5
 219.875 186.562 l 1
 426.125 186.562 l 1
 426.125 126.562 l 1
 159.875 126.562 l 1
 159.875 533 l 5
 84.875 533 l 5
 84.875 60 l 1
 426.125 60 l 1
 426.125 0 l 1
 24.875 0 l 1
EndSplineSet
Validated: 524289
EndChar

StartChar: m
Encoding: 109 109 64
Width: 802
VWidth: 0
Flags: W
HStem: 0 60<633.5 716.938> 580 20G<25.0625 87.0467 571.899 633.5 715.294 776.938> 580 20G<25.0625 87.0467 571.899 633.5 715.294 776.938>
VStem: 25.0625 60<30 463.5> 168.5 60<30 215.062> 573.5 60<60 214.688 438.75 463.312> 716.938 60<60 463.125>
LayerCount: 2
Fore
SplineSet
25.0625 593 m 1xde
 25 656 l 1
 329.562 152.938 l 1
 634 656 l 1
 633.5 593 l 1
 633.5 431.75 l 1
 777 656 l 1
 776.938 593 l 1
 776.938 0 l 1
 573.5 0 l 1
 573.5 207.688 l 1
 472.812 33.3125 l 1
 401.188 157.438 l 1
 329.375 33.3125 l 1
 228.5 208.062 l 1
 228.5 0 l 1
 168.5 0 l 1
 168.5 311.75 l 1
 85.0625 456.5 l 1
 85.0625 0 l 1
 25.0625 0 l 1
 25.0625 593 l 1xde
573.5 456.312 m 1
 435.688 217.438 l 1
 472.812 153.312 l 1
 573.5 327.688 l 1
 573.5 327.875 l 1
 573.5 456.312 l 1
716.938 456.125 m 1
 633.5 311.375 l 1
 633.5 53 l 1
 716.938 53 l 1
 716.938 456.125 l 1
EndSplineSet
Validated: 524289
EndChar

StartChar: n
Encoding: 110 110 65
Width: 642
VWidth: 0
Flags: W
HStem: 0 60<85.2188 143.344> 558.438 20G<438.656 498.656 556.781 616.781> 558.438 20G<438.656 498.656 556.781 616.781>
VStem: 25.2188 60<60 481.5> 143.344 60<60 327.188> 438.656 60<118.5 126.562 211.312 578.438> 556.781 60<153.188 578.438>
LayerCount: 2
Fore
SplineSet
25.2188 658.5 m 5xde
 438.656 118.5 l 5
 438.656 593.438 l 5
 498.656 593.438 l 5
 498.656 211.312 l 5
 556.781 145.188 l 5
 556.781 593.438 l 5
 616.781 593.438 l 5
 616.781 0.0625 l 5
 498.656 126.562 l 5
 498.656 -58.5 l 5
 203.344 327.188 l 5
 203.344 0 l 5
 25.2188 0 l 5
 25.2188 658.5 l 5xde
85.2188 481.5 m 5
 85.2188 60 l 5
 143.344 60 l 5
 143.344 405.562 l 5
 85.2188 481.5 l 5
EndSplineSet
Validated: 524289
EndChar

StartChar: o
Encoding: 111 111 66
Width: 650
VWidth: 0
Flags: W
HStem: 0 60<229.097 422.504> 413.438 60<258.406 363.482> 540 60<227.497 405.18>
VStem: 25 60<219.873 397.501> 151.562 60<261.611 366.589> 565 60<202.497 395.906>
LayerCount: 2
Fore
SplineSet
325 600 m 4
 378.771 600 429.461 585.639 473.125 560.812 c 6
 507.438 541.312 l 5
 414.438 448.5 l 5
 434.178 436.611 451.258 420.873 464.875 402.375 c 5
 556.75 494.062 l 5
 577 462.75 l 6
 607.387 415.863 625 359.965 625 300 c 4
 625 134.666 490.334 0 325 0 c 4
 265.035 0 209.143 17.8066 162.25 48.1875 c 6
 130.938 68.4375 l 5
 222.812 160.312 l 5
 204.332 173.865 188.582 190.91 176.688 210.562 c 5
 83.6875 117.75 l 5
 64.1875 152.062 l 6
 39.3613 195.738 25 246.234 25 300 c 4
 25 465.328 159.666 600 325 600 c 4
325 540 m 4
 192.092 540 85 432.902 85 300 c 4
 85 271.266 90.5781 244.078 99.8125 218.625 c 5
 153.812 272.812 l 6
 152.406 281.672 151.562 290.754 151.562 300 c 4
 151.562 395.426 229.562 473.438 325 473.438 c 4
 333.168 473.408 342.848 472.383 352.375 471.188 c 5
 406.375 525.375 l 5
 380.951 534.586 353.699 540 325 540 c 4
325 413.438 m 4
 261.988 413.438 211.562 363 211.562 300 c 4
 211.562 258.873 233.342 223.143 265.75 203.25 c 5
 421.75 359.062 l 5
 401.875 391.559 366.186 413.438 325 413.438 c 4
544.375 396.75 m 5
 228.25 80.8125 l 5
 257.893 67.6582 290.377 60 325 60 c 4
 457.914 60 565 167.092 565 300 c 4
 565 334.529 557.459 367.178 544.375 396.75 c 5
EndSplineSet
Validated: 524289
EndChar

StartChar: p
Encoding: 112 112 67
Width: 507
VWidth: 0
Flags: W
HStem: 0 21G<25.2188 85.2188 151.781 211.781> 0 21G<25.2188 85.2188 151.781 211.781> 521.25 60<85.963 150.976>
VStem: 25.2188 60<0 518.8> 151.781 60<0 172.5 246.375 514.12> 303.656 60<302.696 473.967> 421.781 60<302.051 473.45>
LayerCount: 2
Fore
SplineSet
142.594 600.25 m 0xbe
 160.289 600.508 179.227 599.688 198.469 597.062 c 0
 203.836 596.33 209.162 595.48 214.594 594.438 c 0
 242.279 598.141 280.992 600.824 321.094 595.188 c 0
 358.641 589.908 398.508 577.188 430.031 548.125 c 0
 461.555 519.062 481.781 473.758 481.781 414.625 c 0
 481.781 298.756 415.852 235.867 353.344 210.625 c 0
 291.797 185.77 233.104 190.598 231.281 190.75 c 0
 230.156 190.75 l 1
 211.781 191.5 l 1
 211.781 0 l 1
 151.781 0 l 1
 151.781 540.25 l 1
 124.178 540.508 100.98 537.379 85.2188 534.625 c 1
 85.2188 0 l 1
 25.2188 0 l 1
 25.2188 583.562 l 1
 48.2812 589.188 l 1
 48.2812 589.188 89.5137 599.482 142.594 600.25 c 0xbe
326.344 533.312 m 1
 349.465 504.719 363.656 465.355 363.656 416.5 c 0
 363.656 345.93 341.473 294.08 309.656 259.375 c 1
 316.67 261.326 323.736 263.629 330.844 266.5 c 0
 378.023 285.555 421.781 319.557 421.781 414.625 c 0
 421.781 460.961 408.445 486.455 389.344 504.062 c 0
 373.207 518.939 350.906 528.238 326.344 533.312 c 1
214.031 533.125 m 0
 213.357 533.008 212.438 532.867 211.781 532.75 c 2
 211.781 265.375 l 1
 226.652 270.9 241.172 278.6 253.969 289.188 c 0
 281.596 312.045 303.656 347.57 303.656 416.5 c 0
 303.656 462.637 289.922 487.838 270.094 505.562 c 0
 255.398 518.705 235.869 527.635 214.031 533.125 c 0
EndSplineSet
Validated: 524321
EndChar

StartChar: q
Encoding: 113 113 68
Width: 738
VWidth: 0
Flags: W
HStem: 0 60<227.434 410.981> 109.688 60.1875<255.3 319.5> 430.312 60<254.399 394.954> 540 60<227.434 422.441>
VStem: 24.9375 60<202.497 397.501> 134.625 60.1875<230.363 294.562> 455.25 60<220.073 370.015> 564.938 60<200.852 397.501>
LayerCount: 2
Fore
SplineSet
324.938 600 m 0
 490.271 600 624.938 455.328 624.938 290 c 0
 624.938 237.307 610.629 187.988 586.688 144.875 c 1
 713.062 20 l 1
 627.562 20 l 1
 510.375 135.688 l 1
 524.25 156.312 l 2
 549.949 194.539 564.938 240.354 564.938 290 c 0
 564.938 422.902 457.846 540 324.938 540 c 0
 192.029 540 84.9375 422.902 84.9375 290 c 0
 84.9375 157.092 192.029 50 324.938 50 c 0
 355.945 50 385.195 56.2168 412.312 66.875 c 1
 373.125 106.062 l 1
 357.691 101.979 341.59 99.6885 324.938 99.6885 c 0
 220.184 99.6885 134.625 185.246 134.625 290 c 0
 134.625 394.748 220.178 490.312 324.938 490.312 c 0
 429.691 490.312 515.25 394.748 515.25 290 c 0
 515.25 250.865 503.361 214.35 483 184.062 c 1
 433.125 217.438 l 1
 447.082 238.197 455.25 262.982 455.25 290 c 0
 455.25 362.328 397.266 430.312 324.938 430.312 c 0
 275.203 430.312 232.172 402.879 210.188 362.25 c 1
 211.125 363.188 l 1
 511.875 52.25 l 1
 478.875 32.5625 l 2
 433.887 5.62695 381.094 -10 324.938 -10 c 0
 159.604 -10 24.9375 124.666 24.9375 290 c 0
 24.9375 455.328 159.604 600 324.938 600 c 0
194.812 284.562 m 1
 197.555 216.582 251.52 162.623 319.5 159.875 c 1
 194.812 284.562 l 1
EndSplineSet
Validated: 524289
EndChar

StartChar: r
Encoding: 114 114 69
Width: 691
VWidth: 0
Flags: W
HStem: 0 59.0625<454.906 523.344> 544.312 55.875<84.2188 143.094>
VStem: 25.1562 59.0625<29.625 544.178> 143.094 59.25<29.625 228.188 234.562 539.812> 354.219 58.875<308.155 476.263> 480.594 59.25<296.558 476.37>
LayerCount: 2
Fore
SplineSet
249.031 602.5 m 0
 277.086 602.975 312.453 601.328 350.844 594.438 c 0
 395.105 586.492 441.277 571.48 477.969 540.438 c 0
 514.66 509.394 539.844 461.102 539.844 398.875 c 0
 539.844 312.502 511.461 257.389 480.969 225.625 c 0
 473.387 217.732 465.746 211.059 458.281 205.75 c 1
 665.844 -1 l 1
 430.531 -1 l 1
 202.344 226.188 l 1
 202.344 0.625 l 1
 143.094 0.625 l 1
 143.094 542.312 l 1
 118.039 543.127 98.5566 542.078 84.2188 540.625 c 1
 84.2188 0.625 l 1
 25.1562 0.625 l 1
 25.1562 592.938 l 1
 50.0938 596.875 l 1
 50.0938 596.875 115.836 606.004 191.094 598.188 c 0
 200.328 599.43 220.977 602.025 249.031 602.5 c 0
202.344 537.812 m 2
 202.344 232.562 l 1
 251.281 242.312 l 1
 251.281 242.312 275.357 247.094 301.344 268.75 c 0
 327.33 290.406 354.219 326.494 354.219 398.875 c 0
 354.219 446.336 338.164 473.898 313.156 495.062 c 0
 288.148 516.227 251.973 529.492 213.969 536.312 c 0
 210.049 537.016 206.188 537.455 202.344 537.812 c 2
360.406 530.688 m 1
 391.754 499.655 413.094 455.447 413.094 398.875 c 0
 413.094 310.943 376.701 254.266 339.406 223.188 c 0
 329.117 214.615 318.922 208.305 309.219 202.938 c 1
 454.906 58.0625 l 1
 523.344 58.0625 l 1
 351.031 229.375 l 1
 401.656 241.938 l 1
 401.656 241.938 418.086 245.336 438.219 266.312 c 0
 458.352 287.283 480.594 324.936 480.594 398.875 c 0
 480.594 446.336 464.727 473.898 439.719 495.062 c 0
 419.293 512.348 390.658 523.158 360.406 530.688 c 1
EndSplineSet
Validated: 524321
EndChar

StartChar: s
Encoding: 115 115 70
Width: 504
VWidth: 0
Flags: W
HStem: 0 60<211.347 365.802> 151.875 60<25.3125 105.007> 187.406 60<165.696 340.355> 314.062 60<184.555 358.412> 427.125 60<375.167 464.625> 540 60<184.246 295.526>
VStem: 78.75 60<274.562 353.153> 97.125 60<112.477 152.25 407.09 512.75> 419.062 60<177.53 252.271>
LayerCount: 2
Fore
SplineSet
239.812 600 m 0xdd80
 308.133 600 367.23 551.818 381.375 487.125 c 1
 464.625 487.125 l 1
 464.625 427.125 l 1
 324.75 427.125 l 1
 324.75 457.125 l 2
 324.75 502.482 285.855 540 239.812 540 c 0
 193.787 540 157.125 503.156 157.125 457.125 c 0xdd80
 157.125 411.076 193.787 365.062 239.812 365.062 c 2
 288.75 365.062 l 2
 393.562 364.676 479.062 278.344 479.062 173.438 c 0
 479.062 68.3086 391.424 -9 288.188 -9 c 2
 288 -9 l 2
 195.035 -9 115.406 54 100.312 143.25 c 1
 25.3125 142.875 l 1
 24.9375 202.875 l 1
 141.75 203.625 l 1
 103.887 229.371 78.75 272.613 78.75 321.562 c 0xde80
 78.75 351.75 88.2949 380.139 104.438 403.312 c 1
 99.7207 417.422 97.125 441.475 97.125 457.125 c 0
 97.125 535.582 161.355 600 239.812 600 c 0xdd80
142.125 344.812 m 1
 140.197 338.039 139.125 329.736 138.75 321.562 c 0
 138.75 275.514 175.406 238.406 221.438 238.406 c 2
 270.562 238.406 l 2xbe80
 330.422 238.184 383.941 209.842 418.875 166.312 c 1
 418.992 168.662 419.062 171.035 419.062 173.438 c 0
 419.062 246.158 360.896 305.062 288.188 305.062 c 2
 239.062 305.062 l 2
 201.598 305.25 167.566 320.842 142.125 344.812 c 1
157.125 194.438 m 1xbd80
 157.125 173.438 l 2
 157.125 100.74 213.574 51 288.188 51 c 0
 331.184 51 368.092 67.4766 391.688 95.4385 c 1
 372.48 143.748 325.336 178.406 269.812 178.406 c 2
 221.438 178.406 l 2
 198.322 178.406 176.496 184.564 157.125 194.438 c 1xbd80
EndSplineSet
Validated: 524289
EndChar

StartChar: t
Encoding: 116 116 71
Width: 620
VWidth: 0
Flags: W
HStem: 0 21G<205.938 265.938 349.375 409.375> 0 21G<205.938 265.938 349.375 409.375> 391.875 60.5625<25 205.938 265.938 349.375 409.375 535> 510 60<25 205.938 265.938 349.375 409.375 535>
VStem: 205.938 60<0 391.875 452.438 510> 349.375 60<0 390.938 452.438 510> 535 60<450.938 510>
LayerCount: 2
Fore
SplineSet
25 592 m 1xbe
 595 592 l 1
 595 412.938 l 1
 409.375 412.938 l 1
 409.375 0 l 1
 349.375 0 l 1
 349.375 412.938 l 1
 349.375 413.875 l 1
 265.938 413.875 l 1
 265.938 0 l 1
 205.938 0 l 1
 205.938 413.875 l 1
 25 413.875 l 1
 25 473.875 l 1
 205.938 474.438 l 1
 205.938 532 l 1
 25 532 l 1
 25 592 l 1xbe
265.938 532 m 1
 265.938 474.438 l 1
 349.375 474.438 l 1
 349.375 532 l 1
 265.938 532 l 1
409.375 532 m 1
 409.375 472.938 l 1
 535 472.938 l 1
 535 532 l 1
 409.375 532 l 1
EndSplineSet
Validated: 524289
EndChar

StartChar: u
Encoding: 117 117 72
Width: 650
VWidth: 0
Flags: W
HStem: 0 60<225.22 410.173> 540 60<85 134.688> 550 20G<438.438 498.438 565 625> 550 20G<438.438 498.438 565 625>
VStem: 25 60<200.885 540> 134.688 60<277.644 540> 438.438 60<278.419 570> 565 60<202.507 570>
LayerCount: 2
Fore
SplineSet
25 593 m 1xcf
 194.688 593 l 1xcf
 194.688 375.938 l 2
 194.688 286.154 243.883 198.26 316.562 157.062 c 1
 389.242 198.26 438.438 286.137 438.438 375.938 c 2
 438.438 591 l 1
 498.438 591 l 1
 498.438 375.938 l 2
 498.438 280.998 454.094 186.189 385 131.188 c 1
 401.031 127.807 417.602 125.938 434.688 125.938 c 0
 461.354 125.938 486.918 130.314 510.812 138.312 c 1
 544.68 179.686 565 232.25 565 290 c 2
 565 591 l 1
 625 591 l 1xaf
 625 290 l 2
 625 214.742 597.027 145.783 551.125 93.125 c 0
 496.17 30.0723 415.1 -10 325 -10 c 0
 238.955 -10 161.049 26.4805 106.375 84.6875 c 0
 55.9844 138.312 25 210.711 25 290 c 2
 25 593 l 1xcf
85 533 m 1
 85 290 l 2
 85 226.291 109.674 168.916 150.062 125.938 c 0
 193.879 79.291 255.854 50 325 50 c 0
 355.762 50 384.496 56.7559 411.438 67.25 c 1
 373.035 70.2207 336.467 80.0117 303.438 96.125 c 0
 203.5 144.828 134.688 257.59 134.688 375.938 c 2
 134.688 533 l 1
 85 533 l 1
EndSplineSet
Validated: 524289
EndChar

StartChar: v
Encoding: 118 118 73
Width: 739
VWidth: 0
Flags: W
HStem: 0 21G<357.865 380.954> 0 21G<357.865 380.954> 529.688 67.5<132.969 221.281>
LayerCount: 2
Fore
SplineSet
24.7812 592.188 m 1xa0
 251.469 592.188 l 1
 369.406 379.812 l 1
 487.531 592.188 l 1
 556.719 592.188 l 1
 369.406 259.812 l 1
 221.281 524.688 l 1
 132.969 524.688 l 1
 369.406 107 l 1
 645.031 592.188 l 1
 714.219 592.188 l 1
 369.406 -13 l 1
 24.7812 592.188 l 1xa0
EndSplineSet
Validated: 524289
EndChar

StartChar: w
Encoding: 119 119 74
Width: 1052
VWidth: 0
Flags: W
HStem: 0 21G<358.452 381.542 670.761 693.729> 0 21G<358.452 381.542 670.761 693.729> 529.688 67.5<133.375 221.688>
LayerCount: 2
Fore
SplineSet
25.1875 592.188 m 1xa0
 251.875 592.188 l 1
 410.875 316.188 l 1
 370 261.812 l 1
 221.688 524.688 l 1
 133.375 524.688 l 1
 370 109 l 1
 645.438 592.188 l 1
 714.625 592.188 l 1
 370 -11 l 1
 25.1875 592.188 l 1xa0
800.125 592.188 m 1
 869.312 592.188 l 1
 682.188 261.812 l 1
 628.75 354.25 l 1
 668.312 405.812 l 1
 682.188 381.812 l 1
 800.125 592.188 l 1
957.625 592.188 m 1
 1026.81 592.188 l 1
 682.188 -11 l 1
 562.75 198.062 l 1
 596.5 257.125 l 1
 682.188 109 l 1
 957.625 592.188 l 1
EndSplineSet
Validated: 524289
EndChar

StartChar: x
Encoding: 120 120 75
Width: 696
VWidth: 0
Flags: W
HStem: 0 60<467.344 566.906> 536.062 60<129.281 228.656> 552.25 20G<407.915 488.906 573.913 654.281> 552.25 20G<407.915 488.906 573.913 654.281>
LayerCount: 2
Fore
SplineSet
25.2188 592.062 m 1xc0
 263.344 592.062 l 1xc0
 348.094 449.25 l 1
 442.531 591.25 l 1
 511.906 591.25 l 1xa0
 263.531 183.188 l 1
 232.406 237.375 l 1
 85.2812 0.25 l 1
 16.6562 0.25 l 1
 197.531 297.75 l 1
 25.2188 592.062 l 1xc0
608.281 591.25 m 1xa0
 677.281 591.25 l 1
 498.656 298.125 l 1
 670.781 0 l 1
 432.656 0 l 1
 348.094 146.812 l 1
 249.906 0.25 l 1
 180.719 0.25 l 1
 432.469 412.875 l 1
 463.781 358.5 l 1
 608.281 591.25 l 1xa0
129.281 532.062 m 1xc0
 263.719 303.188 l 1
 313.406 389.25 l 1
 228.656 532.062 l 1
 129.281 532.062 l 1xc0
432.469 292.875 m 1
 382.594 206.812 l 1
 467.344 60 l 1
 566.906 60 l 1
 464.344 237.75 l 1
 432.469 292.875 l 1
EndSplineSet
Validated: 524289
EndChar

StartChar: y
Encoding: 121 121 76
Width: 751
VWidth: 0
Flags: W
HStem: 0 21G<290.656 352.719 400.344 460.344> 0 21G<290.656 352.719 400.344 460.344> 520 20G<25.1562 130.078 173.844 278.781 474.281 579.219 620.906 725.844>
VStem: 290.656 62.0625<0 167.062 249.75 274.688> 400.344 60<0 214.688>
LayerCount: 2
Fore
SplineSet
25.1562 591 m 1xb8
 110.094 591 l 1
 350.656 350.25 l 1
 350.656 300.75 l 1
 640.906 591 l 1
 725.844 591 l 1
 460.344 325.688 l 1
 460.344 0 l 1
 400.344 0 l 1
 400.344 265.688 l 1
 352.719 218.062 l 1
 352.719 0 l 1
 290.656 0 l 1
 290.656 325.688 l 1
 25.1562 591 l 1xb8
173.844 591 m 1
 258.781 591 l 1
 376.531 473.25 l 1
 494.281 591 l 1
 579.219 591 l 1
 376.531 388.125 l 1
 173.844 591 l 1
EndSplineSet
Validated: 524289
EndChar

StartChar: z
Encoding: 122 122 77
Width: 624
VWidth: 0
Flags: W
HStem: 0 60.75<283.828 569.016> 112.688 60<349.453 569.016> 433.312 60<24.7969 280.453> 534.75 61.7812<24.7969 339.703>
LayerCount: 2
Fore
SplineSet
530.016 591.531 m 1
 599.203 591.531 l 1
 349.453 172.688 l 1
 591.016 172.688 l 1
 591.016 112.688 l 1
 314.391 112.688 l 1
 283.828 60.75 l 1
 591.016 60.75 l 1
 591.016 0 l 1
 179.016 0 l 1
 530.016 591.531 l 1
24.7969 591.531 m 5
 444.141 591.531 l 1
 96.1406 0 l 1
 32.3906 0 l 1
 280.453 428.312 l 1
 24.7969 428.312 l 5
 24.7969 488.312 l 5
 315.516 488.312 l 1
 339.703 529.75 l 1
 24.7969 529.75 l 5
 24.7969 591.531 l 5
EndSplineSet
Validated: 524289
EndChar
